<?xml version="1.0" encoding="utf-8"?>
<!-- Generator: Adobe Illustrator 26.0.0, SVG Export Plug-In . SVG Version: 6.00 Build 0)  -->
<svg version="1.1" id="Layer_1" xmlns="http://www.w3.org/2000/svg" xmlns:xlink="http://www.w3.org/1999/xlink" x="0px" y="0px"
	 viewBox="0 0 595.4 60.9" style="enable-background:new 0 0 595.4 60.9;" xml:space="preserve">
<style type="text/css">
	.st0{fill:#1C2880;}
	.st1{font-family:'MyriadPro-Regular';}
	.st2{font-size:8.5px;}
	.st3{fill:#2E3191;}
	.st4{fill:#D71921;}
</style>
<text transform="matrix(1 0 0 1 431.93 11.77)" class="st0 st1 st2">A</text>
<text transform="matrix(1 0 0 1 437.11 11.77)" class="st0 st1 st2">k</text>
<text transform="matrix(1 0 0 1 441.24 11.77)" class="st0 st1 st2">ij House</text>
<text transform="matrix(1 0 0 1 431.93 21.97)" class="st0 st1 st2">198, Bir </text>
<text transform="matrix(1 0 0 1 459.75 21.97)" class="st0 st1 st2">U</text>
<text transform="matrix(1 0 0 1 465.28 21.97)" class="st0 st1 st2">ttam </text>
<text transform="matrix(1 0 0 1 483.9 21.97)" class="st0 st1 st2">M</text>
<text transform="matrix(1 0 0 1 490.83 21.97)" class="st0 st1 st2">ir Sh</text>
<text transform="matrix(1 0 0 1 506.31 21.97)" class="st0 st1 st2">a</text>
<text transform="matrix(1 0 0 1 510.34 21.97)" class="st0 st1 st2">w</text>
<text transform="matrix(1 0 0 1 516.6 21.97)" class="st0 st1 st2">k</text>
<text transform="matrix(1 0 0 1 520.74 21.97)" class="st0 st1 st2">a</text>
<text transform="matrix(1 0 0 1 524.8 21.97)" class="st0 st1 st2">t </text>
<text transform="matrix(1 0 0 1 529.41 21.97)" class="st0 st1 st2">S</text>
<text transform="matrix(1 0 0 1 533.63 21.97)" class="st0 st1 st2">a</text>
<text transform="matrix(1 0 0 1 537.73 21.97)" class="st0 st1 st2">r</text>
<text transform="matrix(1 0 0 1 540.46 21.97)" class="st0 st1 st2">ak</text>
<text transform="matrix(1 0 0 1 431.93 32.17)" class="st0 st1 st2">Gulshan Link </text>
<text transform="matrix(1 0 0 1 479.32 32.17)" class="st0 st1 st2">R</text>
<text transform="matrix(1 0 0 1 483.92 32.17)" class="st0 st1 st2">oa</text>
<text transform="matrix(1 0 0 1 492.69 32.17)" class="st0 st1 st2">d</text>
<text transform="matrix(1 0 0 1 497.4 32.17)" class="st0 st1 st2">,</text>
<text transform="matrix(1 0 0 1 499.16 32.17)" class="st0 st1 st2"> </text>
<text transform="matrix(1 0 0 1 500.61 32.17)" class="st0 st1 st2">T</text>
<text transform="matrix(1 0 0 1 504.23 32.17)" class="st0 st1 st2">ejgaon, Dha</text>
<text transform="matrix(1 0 0 1 546.82 32.17)" class="st0 st1 st2">k</text>
<text transform="matrix(1 0 0 1 550.96 32.17)" class="st0 st1 st2">a-1208</text>
<text transform="matrix(1 0 0 1 431.93 42.37)" class="st0 st1 st2">Hotline: 16609, E-mail: in</text>
<text transform="matrix(1 0 0 1 519.09 42.37)" class="st0 st1 st2">f</text>
<text transform="matrix(1 0 0 1 521.46 42.37)" class="st0 st1 st2">o@a</text>
<text transform="matrix(1 0 0 1 536.49 42.37)" class="st0 st1 st2">k</text>
<text transform="matrix(1 0 0 1 540.62 42.37)" class="st0 st1 st2">i</text>
<text transform="matrix(1 0 0 1 542.61 42.37)" class="st0 st1 st2">j</text>
<text transform="matrix(1 0 0 1 544.58 42.37)" class="st0 st1 st2">.net</text>
<text transform="matrix(1 0 0 1 431.93 52.57)" class="st0 st1 st2">F</text>
<text transform="matrix(1 0 0 1 435.69 52.57)" class="st0 st1 st2">a</text>
<text transform="matrix(1 0 0 1 439.78 52.57)" class="st0 st1 st2">c</text>
<text transform="matrix(1 0 0 1 443.7 52.57)" class="st0 st1 st2">t</text>
<text transform="matrix(1 0 0 1 446.47 52.57)" class="st0 st1 st2">o</text>
<text transform="matrix(1 0 0 1 451.13 52.57)" class="st0 st1 st2">r</text>
<text transform="matrix(1 0 0 1 454.12 52.57)" class="st0 st1 st2">y</text>
<text transform="matrix(1 0 0 1 458.33 52.57)" class="st0 st1 st2">: Nabigon</text>
<text transform="matrix(1 0 0 1 492.54 52.57)" class="st0 st1 st2">j</text>
<text transform="matrix(1 0 0 1 494.51 52.57)" class="st0 st1 st2">, </text>
<text transform="matrix(1 0 0 1 498.08 52.57)" class="st0 st1 st2">K</text>
<text transform="matrix(1 0 0 1 502.82 52.57)" class="st0 st1 st2">adam </text>
<text transform="matrix(1 0 0 1 524.7 52.57)" class="st0 st1 st2">R</text>
<text transform="matrix(1 0 0 1 529.37 52.57)" class="st0 st1 st2">asu</text>
<text transform="matrix(1 0 0 1 541.52 52.57)" class="st0 st1 st2">l</text>
<text transform="matrix(1 0 0 1 543.44 52.57)" class="st0 st1 st2">, Na</text>
<text transform="matrix(1 0 0 1 556.69 52.57)" class="st0 st1 st2">r</text>
<text transform="matrix(1 0 0 1 559.43 52.57)" class="st0 st1 st2">a</text>
<text transform="matrix(1 0 0 1 563.46 52.57)" class="st0 st1 st2">y</text>
<text transform="matrix(1 0 0 1 567.43 52.57)" class="st0 st1 st2">angonj</text>
<g>
	<path class="st3" d="M83.6,37.7L81.3,31h-10l-2.2,6.7h-3.8l9.3-29.9h3.5l9.3,29.9H83.6z M80.2,27.2l-3.8-12.7l-3.9,12.7H80.2z"/>
	<polygon class="st3" points="87.4,7.8 91.2,7.8 91.2,21.3 100.6,7.8 105.4,7.8 95.9,21.2 107.5,37.7 102.8,37.7 93.6,24.5 
		91.2,27.9 91.2,37.7 87.4,37.7 	"/>
	<polygon class="st3" points="110.7,10.9 114.5,10.9 111.3,37.7 107.5,37.7 	"/>
	<polygon class="st3" points="115.5,2.9 114.5,10.9 118.5,10.9 119.5,2.9 	"/>
	<path class="st3" d="M124.4,32.8c0.8-0.7,1.1-1.7,1.2-3v-22h3.8v22c0,2.4-0.9,4.3-2.3,5.6c-1.5,1.4-3.6,2.3-6.4,2.3
		c-1.8,0-3.5-0.6-4.7-1.3c-1.3-0.7-2.3-1.6-3-2.9l3.3-1.7C118.4,34.9,122.9,34,124.4,32.8"/>
	<path class="st3" d="M72,51.7c0,2.7-0.6,3.9-2,3.9c-1.5,0-2.3-1.1-2.3-6.7c0-5.6,0.8-6.6,2.3-6.6c0.5,0,0.8,0.1,1.1,0.4
		c0.6,0.6,0.8,1.9,0.8,2.8V46h2.6v-0.5c0-1.4,0-5.5-4.5-5.5c-3.5,0-4.9,2.5-4.9,9c0,6.5,1.4,9,4.9,9c2.9,0,4.6-2.3,4.6-6.2v-0.5H72
		V51.7z"/>
	<polygon class="st3" points="78.5,50 83.6,50 83.6,47.4 78.5,47.4 78.5,43 83.9,43 83.9,40.4 75.9,40.4 75.9,57.7 84.1,57.7 
		84.1,55.1 78.5,55.1 	"/>
	<polygon class="st3" points="91.8,52.4 89.4,40.4 85.5,40.4 85.5,57.7 88,57.7 88,44.7 90.7,57.7 92.8,57.7 95.5,44.7 95.5,57.7 
		98,57.7 98,40.4 94.2,40.4 	"/>
	<polygon class="st3" points="102.6,50 107.7,50 107.7,47.4 102.6,47.4 102.6,43 108,43 108,40.4 100,40.4 100,57.7 108.2,57.7 
		108.2,55.1 102.6,55.1 	"/>
	<polygon class="st3" points="116.6,52.3 112.7,40.4 109.6,40.4 109.6,57.7 112.1,57.7 112.1,45.4 116,57.7 119.1,57.7 119.1,40.4 
		116.6,40.4 	"/>
	<polygon class="st3" points="120.1,40.4 120.1,43 123.5,43 123.5,57.7 126.1,57.7 126.1,43 129.4,43 129.4,40.4 	"/>
	<g>
		<path class="st4" d="M41.8,18.9l2.6,1.4l13.8-4.7c0.2-0.1,0.5-0.1,0.7-0.1V7.8H41.8V18.9z"/>
		<path class="st4" d="M54.4,40c-0.1,0.9-0.6,1.8-1.3,2.5c-0.1,0.1-0.1,0.1-0.2,0.2l-1.5,1.1c-0.9,0.7-2,0.9-3,0.9
			c-0.2,0.2-0.4,0.5-0.7,0.7l-1.6,1.1c-0.8,0.6-1.7,0.9-2.6,0.9c-0.1,0.1-0.2,0.3-0.3,0.4l-1.3,1.2v9H59V38.7L54.4,40z"/>
		<path class="st4" d="M12.4,40.9c0.1,0,0.1,0,0.2,0l-0.2-0.1C12.3,40.8,12.3,40.8,12.4,40.9"/>
		<path class="st4" d="M20.7,49.4c-0.1-0.1-0.3-0.2-0.4-0.2v0l-1.6-1.2c-0.3-0.3-0.6-0.5-0.8-0.9c-0.7-0.1-1.4-0.3-2-0.8L14.3,45
			c-0.2-0.2-0.4-0.4-0.6-0.6c-0.7,0-1.5-0.2-2.1-0.7L10,42.6c-0.9-0.6-1.5-1.5-1.7-2.5c0-0.1,0-0.2,0-0.3l-4.4-1.5v19.5h16.8V49.4z"
			/>
		<path class="st4" d="M16.9,20.1l3.7-1.7V7.8H3.9v7.5c0.3,0,0.5,0.1,0.8,0.2L16.9,20.1z"/>
		<path class="st3" d="M39.4,50.1c-0.4,0.1-0.9,0.1-1.3,0c-0.1,0.1-0.2,0.2-0.3,0.2c0,0-0.1,0-0.1,0.1l-1.2,0.9c-0.9,0.7-1.9,1-3,1
			c-0.9,0-1.9-0.3-2.7-0.8l-0.6-0.4c-0.6,0.7-1.5,1.2-2.5,1.3c-0.2,0-0.3,0-0.5,0c-0.9,0-1.7-0.3-2.4-0.8l-1.5-1.2
			c-0.1-0.1-0.1-0.1-0.2-0.2v7.6h16.2V50.1z"/>
		<path class="st3" d="M23.1,17.3l3.2-1.4c0.8-0.4,1.7-0.5,2.5-0.5l1.8,0.1c0.4,0,0.8,0.1,1.1,0.3c1.5-0.6,3.3-0.5,4.7,0.2
			c0,0,0.1,0,0.1,0.1l2.8,1.5V7.8H23.1V17.3z"/>
		<path class="st3" d="M10.9,37.7c0,0,0.6-0.7,1.6-0.7c0.9,0,1.6,0.6,2.3,1.2c0.1,0,0.1,0.1,0.2,0.1c0.9,0.6,1.1,1.2,1.1,1.2
			s0.5-0.9,1.3-1.3c0.3-0.2,0.6-0.3,0.9-0.3c1.1,0,1.6,0.6,2.4,1.3c0,0,0,0,0.1,0.1c0,0,0.1,0.1,0.1,0.1c0.9,0.7,1.1,1.3,1.1,1.3
			c0.4-0.4,0.8-0.5,1.1-0.6c0,0,0.1,0,0.1,0c0.2,0,0.3,0,0.5,0c0.6,0.1,1,0.4,1,0.4s0.6,0.4,1.6,1.4c0.1,0.1,0.1,0.1,0.2,0.2
			c0.8,0.9,0.5,1.8,0.5,1.8c0.5,0,1.1,0.2,1.7,0.7c0.5,0.3,0.9,0.7,1.4,1.2c1.1,1.1,0.4,2.3,0.4,2.3l1.5,1l0.4,0.3
			c0.7,0.5,1.7,0.5,2.4-0.1l1.2-0.9c0.3-0.2,0.3-0.7,0-0.9l-2.8-2.1c0,0-0.4-0.3-0.1-0.7c0.3-0.4,0.8-0.1,0.8-0.1l4,2.7
			c0.5,0.3,1.1,0.4,1.6,0.1c0,0,0.1,0,0.1-0.1c0.1-0.1,0.2-0.1,0.3-0.2l1.4-1.3c0.3-0.2,0.2-0.7-0.1-0.9l-1.7-1.2l-0.1-0.1l-3.6-2.6
			c0,0-0.4-0.3-0.1-0.7c0.3-0.4,0.8,0,0.8,0l2.8,2l0.1,0.1l2.4,1.6l0.5,0.3c0.6,0.4,1.5,0.4,2.1,0L46,43c0.5-0.3,0.5-1,0-1.3l-4.2-3
			l-2.4-1.7l-0.1-0.1L38.2,36c-0.6-0.4-0.1-1.4,0.8-0.8l0.4,0.3l0.1,0.1l2.4,1.6l6.1,4.3c0.5,0.4,1.2,0.3,1.7,0l1.4-1l0.1-0.1
			c0.6-0.5,0.5-1.3-0.1-1.8l-9.2-6.8L39.5,30l-0.1-0.1l-5.6-4.1c-0.3-0.2-0.7-0.3-1.1-0.2l-1.5,0.3c-0.3,0.1-0.6,0.3-0.8,0.5
			L28,29.8c-0.7,0.8-1.7,1.1-2.5,0.5l-2.3-1.6L23,28.6l-0.1-0.1c-0.7-0.7-0.7-1.8-0.3-2.5l0.4-0.6l0.1-0.2L26,21
			c0.4-0.5,0.9-0.9,1.4-1.2l3-1.4l-1.8-0.1c-0.4,0-0.8,0.1-1.2,0.2l-2.7,1.2l-1.7,0.8l-0.1,0l-2.4,1.1L18,22.7
			c-0.6,0.3-1.3,0.3-1.9,0.1L3.9,18.3v17L9,37L10.9,37.7z"/>
		<path class="st3" d="M43.3,22.9l-1.4-0.8l-2.4-1.3l-0.1-0.1l-4.1-2.2c-0.6-0.3-1.3-0.4-1.9-0.3c-0.2,0-0.5,0.1-0.7,0.2l-4.4,2.1
			c-0.6,0.3-1.1,0.7-1.5,1.2l-3.2,4.8c-0.3,0.4-0.2,0.9,0.1,1.3l1.9,1.3c0.7,0.6,1.4,0.2,1.8-0.4l1.8-2.8c0.4-0.5,1-0.9,1.6-1.1
			l1.2-0.3c0.9-0.2,1.8,0,2.5,0.5l4.7,3.5l0.1,0.1l2.4,1.8l9.5,7.1c0.2,0.1,0.4,0.2,0.7,0.1l1.7-0.5l5.3-1.5V18.4L45.2,23
			C44.6,23.3,43.9,23.2,43.3,22.9"/>
		<path class="st3" d="M25.5,42.6l-0.3-0.2l-1.3-1c0,0-0.1-0.1-0.2-0.1c-0.2-0.1-0.5-0.1-0.7-0.1c0,0-0.1,0-0.1,0
			c-0.2,0.1-0.4,0.2-0.6,0.4L21,43.3l-0.4,0.5l-0.3,0.4c-0.4,0.5-0.3,1.1,0.2,1.5l0.2,0.1l0.3,0.3l0.9,0.7l0.2,0.1
			c0.3,0.2,0.6,0.3,1,0.2c0,0,0.1,0,0.1,0c0.2-0.1,0.3-0.2,0.4-0.3l1-1.3l1.1-1.4C26.1,43.6,26,42.9,25.5,42.6"/>
		<path class="st3" d="M29.2,46.3l-1-0.8L27.6,45c-0.5-0.4-1.1-0.3-1.5,0.2l-0.8,1l-0.4,0.5c-0.4,0.5-0.3,1.1,0.2,1.5l0.6,0.5l1,0.8
			c0.4,0.3,1,0.3,1.3,0c0.1,0,0.1-0.1,0.1-0.2l1.2-1.5C29.7,47.3,29.6,46.6,29.2,46.3"/>
		<path class="st3" d="M20.7,41.9c0.3-0.4,0.3-1-0.1-1.4c0,0-0.1-0.1-0.1-0.1L20,40l-1-0.8c-0.4-0.3-0.8-0.3-1.2-0.1
			c-0.1,0.1-0.2,0.1-0.3,0.2l-1.6,2c-0.2,0.3-0.3,0.7-0.2,1c0.1,0.2,0.2,0.3,0.3,0.5l0.6,0.5l0.7,0.5l0.3,0.2
			c0.5,0.4,1.1,0.3,1.5-0.2l0.9-1.1L20.7,41.9L20.7,41.9z"/>
		<path class="st3" d="M14.6,39.3L14.1,39l-0.2-0.1l-0.2-0.1L13,38.2c-0.5-0.3-1.2-0.2-1.5,0.3l-0.1,0.2c-0.3,0.5-0.2,1.2,0.3,1.5
			l0.2,0.1l0.6,0.4l0.2,0.1l0.4,0.3l0.3,0.2c0.3,0.2,0.5,0.2,0.8,0.2c0.3-0.1,0.5-0.2,0.7-0.5l0.1-0.2
			C15.3,40.4,15.1,39.7,14.6,39.3"/>
	</g>
</g>
</svg>
