<svg id="Layer_1" data-name="Layer 1" xmlns="http://www.w3.org/2000/svg" viewBox="0 0 1200 1200"><path d="M446.51,211.29H753.22a11.24,11.24,0,0,0,2.64,1.23c59.51,10.63,97.52,55.9,97.57,116.25q0,34.16,0,68.32V407.2c8.76,0,16.57-.12,24.37,0,59.44,1,109.93,50.78,110.56,110.23q1,94.49,0,189c-.49,54.69-43.22,102.22-97.43,109.22-12.17,1.57-24.56,1.43-37.52,2.11v8.28c0,30.62.08,61.23,0,91.85-.13,41.29-29.55,70.72-70.86,70.74q-182.55.11-365.11,0c-41.76,0-71-29.43-71.13-71.25-.06-30.62,0-61.23,0-91.85v-8.46c-7.83,0-14.63,0-21.43,0a114.19,114.19,0,0,1-110-84.93c-1.35-5.06-2.5-10.18-3.74-15.27V507.35a25.38,25.38,0,0,0,1.41-4.15c8.08-49.76,47-88.09,97-94.74,11.9-1.58,24-1.33,36.76-1.95v-8.28c0-24.76-.15-49.52,0-74.28.41-51.34,35.89-96.47,85.63-109.19C436.8,213.55,441.67,212.45,446.51,211.29ZM346,695.61c-5.16,0-9.7.2-14.2,0a22.7,22.7,0,0,1-3.59-45,49.34,49.34,0,0,1,9.82-.5q261.84,0,523.69,0c1.77,0,3.54-.05,5.31,0,13,.47,22.77,10.2,22.83,22.64s-9.69,22.36-22.6,22.86c-4.45.17-8.91,0-13.8,0v75.92c7.75,0,14.31.07,20.88,0,38.51-.48,68.43-29.95,68.61-68.37q.44-91.08,0-182.15c-.18-38.1-29.95-68.18-67.92-68.22q-275.13-.29-550.26,0c-38,0-67.77,30.15-67.94,68.19-.27,60.72-.37,121.44.22,182.15a75.38,75.38,0,0,0,6.62,29.21c13.39,29.86,45.5,44.37,82.33,38.33Zm45.88.29v8.28q0,105.86,0,211.72c0,18.7,8.59,27.23,27.4,27.23H780.46c18.81,0,27.4-8.54,27.41-27.23q0-105.85,0-211.72V695.9Zm416-289c0-27.06.09-53.33,0-79.6-.17-40.82-29.6-70.39-70.35-70.43q-137.7-.15-275.4,0c-40.7.05-70.1,29.69-70.24,70.53-.09,24.28,0,48.55,0,72.83,0,2.18.27,4.35.43,6.66Z"/><path d="M600,549.88c-11.61,0-23.23.08-34.84,0-14.08-.12-24.24-9.6-24.36-22.56-.13-13.23,10.18-22.9,24.71-22.95q34.46-.12,68.92,0c14.58,0,24.85,9.66,24.74,22.92s-10.34,22.51-25.09,22.59C622.73,549.93,611.37,549.88,600,549.88Z"/><path d="M600,747.27c19.45,0,38.9,0,58.35,0,14.77,0,25,9.31,25.14,22.56s-10.14,22.93-24.74,22.95q-58.72.11-117.46,0c-14.57,0-24.86-9.68-24.75-22.94s10.39-22.53,25.12-22.57C561.09,747.22,580.54,747.27,600,747.27Z"/><path d="M600,844.44c19.45,0,38.9,0,58.35,0,14.76,0,25,9.32,25.13,22.57S673.34,889.94,658.73,890q-58.72.1-117.46,0c-14.57,0-24.85-9.69-24.74-23s10.4-22.52,25.13-22.56C561.1,844.4,580.55,844.44,600,844.44Z"/></svg>