<?xml version="1.0" encoding="utf-8"?>
<!-- Generator: Adobe Illustrator 26.0.0, SVG Export Plug-In . SVG Version: 6.00 Build 0)  -->
<svg version="1.1" id="Layer_1" xmlns="http://www.w3.org/2000/svg" xmlns:xlink="http://www.w3.org/1999/xlink" x="0px" y="0px"
	 viewBox="0 0 489.9 70.14" style="enable-background:new 0 0 489.9 70.14;" xml:space="preserve">
<style type="text/css">
	.st0{fill:#0D8DE7;}
	.st1{fill:#FFFFFF;}
	.st2{fill:#050505;}
	.st3{font-family:'Impact';}
	.st4{font-size:35.5669px;}
</style>
<g>
	<path class="st0" d="M68.47,53.49c0,5.76-4.38,10.42-9.78,10.42H19.95c-5.4,0-9.78-4.66-9.78-10.42V16.04
		c0-5.75,4.38-10.42,9.78-10.42h38.74c5.4,0,9.78,4.67,9.78,10.42V53.49z"/>
	<path class="st1" d="M44.59,15.01c-4.23-1.12-8.7-0.86-12.77,0.74l-0.79-1.69l-0.45,0.21v-0.05c-0.54-0.54-0.94-1.2-1.16-1.93
		c-0.07-0.19-0.13-0.41-0.2-0.62c-0.24-0.84-0.48-1.56-1.09-1.79c-0.31-0.11-0.65-0.08-0.93,0.08l0,0c-0.28,0.14-0.5,0.38-0.59,0.68
		c-0.18,0.62,0.3,1.26,0.79,1.93c0.14,0.18,0.26,0.35,0.37,0.53c0.48,0.62,0.82,1.35,0.97,2.12l0,0l0,0l-0.42,0.2l0.73,1.64
		c-0.89,0.5-1.73,1.06-2.53,1.69c-2.59,2.09-4.62,4.79-5.91,7.85l-1.73-0.61l-0.17,0.46h-0.07c-0.78-0.01-1.54-0.21-2.21-0.59
		l-0.58-0.29c-0.74-0.39-1.44-0.76-2.04-0.51c-0.28,0.15-0.5,0.41-0.58,0.72l0,0c-0.11,0.3-0.09,0.63,0.05,0.92
		c0.33,0.57,1.11,0.69,1.94,0.84c0.21,0,0.43,0.06,0.63,0.11c0.79,0.06,1.56,0.31,2.23,0.73l0,0l-0.15,0.44l1.69,0.59
		c-1.12,4.23-0.86,8.7,0.74,12.77l-1.69,0.79l0.21,0.46l-0.05,0.04c-0.56,0.52-1.23,0.9-1.97,1.11c-0.2,0.08-0.41,0.15-0.61,0.2
		c-0.84,0.25-1.56,0.49-1.8,1.1c-0.1,0.31-0.07,0.64,0.08,0.92l0,0c0.13,0.29,0.37,0.51,0.68,0.6c0.62,0.17,1.26-0.3,1.94-0.79
		l0.53-0.38c0.61-0.47,1.32-0.78,2.08-0.91l0,0l0.21,0.43l1.62-0.78c0.51,0.86,1.07,1.69,1.69,2.48c2.09,2.61,4.79,4.68,7.85,6.02
		l-0.6,1.69l0.46,0.17v0.08c-0.02,0.76-0.23,1.51-0.61,2.17c-0.08,0.19-0.2,0.4-0.3,0.58c-0.39,0.74-0.76,1.46-0.5,2.04
		c0.15,0.29,0.41,0.5,0.72,0.59l0,0c0.29,0.12,0.62,0.1,0.9-0.05c0.57-0.31,0.68-1.11,0.84-1.93c0-0.21,0.08-0.43,0.12-0.64
		c0.1-0.78,0.39-1.53,0.84-2.18l0,0l0.46,0.16l0.58-1.69c4.21,1.11,8.67,0.85,12.72-0.74l0.84,1.69l0.44-0.21l0.05,0.06
		c0.53,0.55,0.91,1.23,1.12,1.96c0.06,0.2,0.14,0.41,0.19,0.62c0.24,0.84,0.49,1.55,1.1,1.79c0.31,0.1,0.64,0.07,0.92-0.09l0,0
		c0.29-0.13,0.51-0.38,0.6-0.68c0.17-0.62-0.3-1.26-0.8-1.93l-0.36-0.53c-0.49-0.62-0.82-1.35-0.96-2.13l0,0l0.42-0.21l-0.78-1.62
		c0.87-0.5,1.7-1.06,2.48-1.69c2.63-2.08,4.7-4.77,6.03-7.85l1.69,0.6l0.17-0.46h0.07c0.76,0.02,1.51,0.23,2.17,0.61
		c0.19,0.08,0.39,0.19,0.58,0.3c0.74,0.4,1.45,0.76,2.03,0.49c0.3-0.14,0.52-0.4,0.6-0.72l0,0c0.11-0.29,0.09-0.62-0.07-0.9
		c-0.31-0.57-1.08-0.68-1.92-0.84c-0.19-0.01-0.38-0.03-0.57-0.07c-0.79-0.09-1.54-0.38-2.18-0.84l0,0l0.16-0.45l-1.69-0.59
		c1.14-4.22,0.88-8.7-0.72-12.77l1.64-0.79l-0.21-0.46h0.04c0.55-0.53,1.23-0.91,1.98-1.11c0.19-0.07,0.4-0.14,0.62-0.2
		c0.84-0.25,1.56-0.48,1.79-1.09c0.11-0.31,0.08-0.65-0.08-0.93l0,0c-0.13-0.29-0.38-0.5-0.68-0.59c-0.62-0.18-1.26,0.3-1.94,0.79
		c-0.17,0.14-0.35,0.26-0.52,0.38c-0.64,0.48-1.39,0.8-2.18,0.92l0,0l0,0l-0.19-0.43l-1.62,0.79c-0.5-0.87-1.07-1.7-1.69-2.48
		c-2.08-2.63-4.78-4.69-7.85-6.02l0.6-1.73l-0.46-0.17v-0.08c0.03-0.76,0.24-1.51,0.62-2.17c0.08-0.19,0.19-0.39,0.29-0.58
		c0.4-0.74,0.76-1.44,0.5-2.04c-0.15-0.29-0.41-0.5-0.73-0.58l0,0c-0.29-0.11-0.62-0.09-0.9,0.06c-0.62,0.3-0.72,1.1-0.83,1.94
		c0,0.2-0.08,0.42-0.12,0.63c-0.1,0.79-0.39,1.54-0.84,2.19l0,0l0,0l-0.45-0.15L44.59,15.01z"/>
	<path class="st2" d="M28.59,44.96l-0.42,0.75l0.79,0.79l0.77-0.41l0.74,0.73l-3.89,2.09l-0.97-0.95l2.05-3.93L28.59,44.96z
		 M28.16,47l-0.49-0.49l-0.62,1.11L28.16,47z"/>
	<path class="st2" d="M25.51,40.24l0.68,1.22l-1.06,1.41l0.75,0.08l0.84-0.47l0.59,1.06l-3.72,2.03l-0.57-1.11l1.53-0.84l-2.09-0.19
		l-0.55-1l1.85,0.19L25.51,40.24z"/>
	<path class="st2" d="M21.02,39.53l4.08-1.15l0.33,1.22l-4.05,1.16L21.02,39.53z"/>
	<path class="st2" d="M20.48,35.97l2.66-0.28c0.31-0.04,0.62-0.04,0.93,0c0.23,0.04,0.42,0.18,0.55,0.37
		c0.17,0.25,0.26,0.54,0.27,0.84c0.03,0.28,0.03,0.56,0,0.84l-1.01,0.1c0.03-0.16,0.03-0.33,0-0.5c0-0.19-0.07-0.32-0.16-0.38
		c-0.15-0.08-0.32-0.11-0.48-0.07l-2.63,0.3L20.48,35.97z"/>
	<path class="st2" d="M23.5,32.96l0.09-1.17c0.35-0.01,0.64-0.28,0.68-0.62c0.08-0.31,0-0.49-0.13-0.53
		c-0.08-0.02-0.17-0.01-0.24,0.05c-0.1,0.11-0.18,0.23-0.24,0.36c-0.18,0.48-0.49,0.9-0.89,1.22c-0.26,0.14-0.56,0.18-0.84,0.1
		c-0.37-0.09-0.68-0.34-0.84-0.68c-0.19-0.43-0.21-0.91-0.06-1.35c0.1-0.73,0.68-1.3,1.41-1.39l0.05,1.11
		c-0.29,0.03-0.53,0.25-0.57,0.54c-0.07,0.27,0,0.43,0.14,0.47c0.07,0.02,0.15,0.01,0.2-0.04c0.09-0.09,0.17-0.21,0.22-0.33
		c0.16-0.33,0.34-0.66,0.53-0.97c0.14-0.18,0.33-0.32,0.55-0.4c0.24-0.08,0.5-0.08,0.73,0c0.38,0.11,0.69,0.39,0.84,0.75
		c0.17,0.45,0.19,0.95,0.05,1.41C25.06,32.35,24.34,32.96,23.5,32.96z"/>
	<path class="st2" d="M24.1,23.73l3.63,2.15l-0.67,1.11l-1.41-0.84l-0.49,0.84l1.4,0.84l-0.67,1.11l-3.6-2.17l0.67-1.1l1.33,0.8
		l0.51-0.84l-1.33-0.8L24.1,23.73z"/>
	<path class="st2" d="M26.29,21.37l3.02,2.95l-0.9,0.92l-3.03-2.95L26.29,21.37z"/>
	<path class="st2" d="M30.22,21.66l0.84,1.28l-1.08,0.72l-2.32-3.54l1.49-1c0.28-0.2,0.59-0.35,0.93-0.42
		c0.24-0.04,0.49-0.01,0.72,0.08c0.23,0.11,0.43,0.28,0.57,0.49c0.22,0.29,0.3,0.67,0.22,1.02c-0.12,0.39-0.38,0.72-0.73,0.92
		L30.22,21.66z M29.71,20.91l0.36-0.23c0.32-0.21,0.39-0.44,0.24-0.67c-0.15-0.23-0.35-0.24-0.65-0.04l-0.4,0.26L29.71,20.91z"/>
	<path class="st2" d="M34.42,19.57l0.43,1.47l-1.23,0.37l-1.18-4.05l1.69-0.52c0.33-0.11,0.68-0.16,1.02-0.14
		c0.25,0.03,0.48,0.13,0.67,0.3c0.19,0.16,0.33,0.38,0.39,0.62c0.12,0.35,0.08,0.74-0.12,1.06c-0.22,0.34-0.56,0.58-0.95,0.68
		L34.42,19.57z M34.14,18.73l0.42-0.12c0.35-0.11,0.5-0.29,0.41-0.56c-0.08-0.27-0.28-0.33-0.61-0.24l-0.46,0.14L34.14,18.73z"/>
	<path class="st2" d="M38.73,16.11l0.29,4.22l-1.28,0.09l-0.29-4.22L38.73,16.11z"/>
	<path class="st2" d="M43.51,20.82l-1.02-0.17l-0.84-2.03c-0.12-0.31-0.22-0.62-0.3-0.94c0.02,0.23,0.02,0.47,0,0.7l-0.33,2.03
		l-1.03-0.17l0.68-4.17l1.2,0.19l0.71,1.69c0.13,0.27,0.23,0.56,0.31,0.84c0-0.37,0.02-0.75,0.08-1.11l0.19-1.22l1.03,0.16
		L43.51,20.82z"/>
	<path class="st2" d="M48.71,20.62l-1.07,2.12l-0.56-0.29c0.03-0.16,0.05-0.31,0.05-0.47c-0.41,0.18-0.88,0.15-1.27-0.07
		c-0.45-0.21-0.78-0.61-0.91-1.09c-0.13-0.55-0.05-1.14,0.24-1.63c0.24-0.52,0.65-0.94,1.17-1.19c0.97-0.35,2.05,0.07,2.53,0.99
		c0.16,0.4,0.16,0.84,0,1.24l-1.16-0.45c0.14-0.43,0.06-0.7-0.22-0.84s-0.74,0.08-1.11,0.8c-0.18,0.28-0.27,0.62-0.26,0.95
		c0.05,0.18,0.17,0.34,0.34,0.43c0.13,0.07,0.27,0.08,0.41,0.05c0.15-0.04,0.27-0.14,0.33-0.28l-0.62-0.3l0.41-0.8L48.71,20.62z"/>
	<path class="st2" d="M52.4,26.05l-0.79,0.68l-1.9-2.23l3.23-2.74l0.84,0.99l-2.44,2.06L52.4,26.05z"/>
	<path class="st2" d="M56.22,26.4l-3.69,2.02l-0.61-1.11l3.68-2.06L56.22,26.4z"/>
	<path class="st2" d="M53.98,32.71l-0.27-1l1.53-1.6c0.22-0.24,0.46-0.46,0.71-0.67c-0.2,0.12-0.41,0.22-0.63,0.28l-1.97,0.57
		l-0.33-1.02l4.07-1.16l0.33,1.17l-1.22,1.36c-0.2,0.23-0.42,0.45-0.66,0.64c0.34-0.16,0.68-0.29,1.04-0.4l1.19-0.34l0.3,1
		L53.98,32.71z"/>
	<path class="st2" d="M55.05,36.87h-1v-3.14l4.22,0.04v3.14h-0.96v-1.94h-0.6v1.53h-0.96v-1.52h-0.68L55.05,36.87z"/>
	<path class="st2" d="M53.34,42.41l-0.96-0.39l1.1-2.72l3.92,1.59l-0.46,1.19l-2.96-1.2L53.34,42.41z"/>
	<path class="st2" d="M53.85,45.54l-2.66-1.8l0.67-0.96l2.67,1.81l0.48-0.72l0.84,0.57l-1.69,2.44l-0.84-0.57L53.85,45.54z"/>
	<path class="st2" d="M50.33,44.93l2.77,3.2l-1.24,1.05c-0.42,0.42-1.01,0.63-1.6,0.57c-0.53-0.08-1.01-0.36-1.36-0.77
		c-0.39-0.41-0.6-0.97-0.58-1.54c0.03-0.55,0.29-1.06,0.72-1.4L50.33,44.93z M49.99,46.5l-0.25,0.22c-0.16,0.15-0.23,0.37-0.19,0.59
		c0.04,0.29,0.18,0.57,0.38,0.79c0.18,0.21,0.41,0.38,0.67,0.48c0.22,0.09,0.48,0.04,0.65-0.13l0.25-0.21L49.99,46.5z"/>
	<path class="st2" d="M40.6,51.5c0,0.72-0.59,1.31-1.31,1.31c-0.72,0-1.31-0.59-1.31-1.31c0-0.72,0.59-1.31,1.31-1.31
		c0.72,0,1.3,0.57,1.31,1.29C40.6,51.49,40.6,51.5,40.6,51.5z"/>
	<path class="st0" d="M42.28,47.51h-5.91C38.31,47.96,40.34,47.96,42.28,47.51z"/>
	<path class="st0" d="M49.43,26.9c-4.43-5.59-12.54-6.53-18.13-2.1c-5.45,4.32-6.5,12.17-2.38,17.77h20.81
		C53.18,37.87,53.06,31.46,49.43,26.9z"/>
	<path class="st0" d="M30.79,44.62h17.06c0.43-0.36,0.83-0.76,1.2-1.19H29.62C29.98,43.85,30.37,44.25,30.79,44.62z"/>
	<path class="st0" d="M33.88,46.64h10.9c0.71-0.32,1.38-0.7,2.01-1.15H31.88C32.51,45.93,33.18,46.32,33.88,46.64z"/>
	<polygon class="st1" points="39.16,29.22 46.51,32.57 46.51,28.31 31.87,28.31 31.87,32.5 	"/>
	<polygon class="st1" points="41.4,25.08 42.9,25.08 42.9,27.35 35.46,27.35 35.46,25.08 36.99,25.08 36.99,25.08 36.99,23.28 
		41.4,23.28 41.4,25.08 	"/>
	<path class="st1" d="M38.69,30.51l-7.54,3.38c-4,1.39-1.59,7.32-1.59,7.32h9.13V30.51z"/>
	<path class="st1" d="M39.7,41.2h9.12c0,0,2.39-5.91-1.6-7.32L39.7,30.5L39.7,41.2z"/>
</g>
<text transform="matrix(1 0 0 1 80.3781 50.1414)" class="st0 st3 st4">AKIJ SHIPPING LINES PTE. LTD.</text>
</svg>
