<svg xmlns="http://www.w3.org/2000/svg" width="47.878" height="82.024" viewBox="0 0 47.878 82.024"><defs><style>.a{fill:#131e45;}.b{fill:#20b5ee;}</style></defs><g transform="translate(7.81)"><g transform="translate(0)"><path class="a" d="M295.122,549.085a7.986,7.986,0,0,1-8.285,5.671,7.649,7.649,0,1,1,8.5-8.428h8.355c-.834-7.948-7.883-14.154-16.455-14.154-.171,0-1.1.006-1.272.011l6.316-13.884a11.878,11.878,0,0,0-.117-10.262,8.861,8.861,0,0,0-4.932-4.633l-.921-.306-13.8,37.65a15.062,15.062,0,0,0-1.805,6.881c-.159,8.683,7.206,15.911,16.331,16.016,8.811.1,16.06-6.356,16.7-14.562Z" transform="translate(-270.701 -503.1)"/></g><g transform="translate(2.183 3.136)"><path class="b" d="M284.079,509.462l-1.233,6.352,3.538,1.577,1.769-5.688A10.069,10.069,0,0,0,284.079,509.462Z" transform="translate(-278.738 -509.462)"/><path class="b" d="M275.752,523.645l-.837,25.137,5.22-23.505A10.241,10.241,0,0,0,275.752,523.645Z" transform="translate(-274.915 -516.654)"/></g></g><g transform="translate(0 65.855)"><path class="a" d="M280.777,638.786a4.7,4.7,0,0,0-1.651-.727,10.017,10.017,0,0,0-2.424-.255h-5.574l-2.006,15.455h6.062a8.134,8.134,0,0,0,2.639-.4,6.037,6.037,0,0,0,1.979-1.087,4.638,4.638,0,0,0,1.671-3.617,2.638,2.638,0,0,0-.629-1.808,3.781,3.781,0,0,0-1.945-1.055,5.562,5.562,0,0,0,1.425-.684,4.121,4.121,0,0,0,.964-.907,3.4,3.4,0,0,0,.547-1.087,4.342,4.342,0,0,0,.173-1.225,3.565,3.565,0,0,0-.3-1.469A2.836,2.836,0,0,0,280.777,638.786Zm-3.021,10.39a2.065,2.065,0,0,1-.413.78,1.878,1.878,0,0,1-.74.52,3.008,3.008,0,0,1-1.126.186h-2.385l.511-4h2.342a3.267,3.267,0,0,1,.919.111,1.618,1.618,0,0,1,.6.308,1.063,1.063,0,0,1,.323.482,2.015,2.015,0,0,1,.095.636A3.522,3.522,0,0,1,277.756,649.176Zm.551-7.224a3.093,3.093,0,0,1-.19,1.156,1.8,1.8,0,0,1-.54.748,2.1,2.1,0,0,1-.841.4,4.761,4.761,0,0,1-1.1.117h-1.739l.513-3.988h1.959a2.448,2.448,0,0,1,1.466.355A1.424,1.424,0,0,1,278.307,641.952Z" transform="translate(-262.13 -637.263)"/><path class="a" d="M335.149,645.216a3.9,3.9,0,0,0-.948-.689,10.4,10.4,0,0,0-1.081-.487q-.552-.212-1.075-.392a6.914,6.914,0,0,1-.942-.4,2.268,2.268,0,0,1-.669-.5,1.038,1.038,0,0,1-.251-.71,1.968,1.968,0,0,1,.128-.722,1.57,1.57,0,0,1,.384-.573,1.791,1.791,0,0,1,.641-.383,2.661,2.661,0,0,1,.9-.139,2.689,2.689,0,0,1,.97.159,4.718,4.718,0,0,1,.731.35q.318.191.574.35a.961.961,0,0,0,.512.159.878.878,0,0,0,.463-.116,1.4,1.4,0,0,0,.385-.372l1.09-1.419a4.1,4.1,0,0,0-.791-.727,5.529,5.529,0,0,0-1.036-.578,6.771,6.771,0,0,0-4.994-.087,5.637,5.637,0,0,0-1.839,1.167,5.107,5.107,0,0,0-1.165,1.681,4.964,4.964,0,0,0-.407,1.978,3.942,3.942,0,0,0,.251,1.5,3.2,3.2,0,0,0,.658,1.029,3.382,3.382,0,0,0,.931.679,9.4,9.4,0,0,0,1.07.452q.546.191,1.07.355a5.733,5.733,0,0,1,.931.377,2.065,2.065,0,0,1,.658.52,1.2,1.2,0,0,1,.251.785,2.046,2.046,0,0,1-.552,1.554,2.188,2.188,0,0,1-1.566.525,2.924,2.924,0,0,1-1.165-.207,4.809,4.809,0,0,1-.83-.456l-.652-.456a.994.994,0,0,0-1.075-.09,1.124,1.124,0,0,0-.379.3l-1.293,1.614a4.567,4.567,0,0,0,.947.827,7.032,7.032,0,0,0,1.209.642,7.646,7.646,0,0,0,1.36.418,7.162,7.162,0,0,0,3.957-.3,5.8,5.8,0,0,0,1.924-1.22,5.283,5.283,0,0,0,1.216-1.8,5.717,5.717,0,0,0,.423-2.2,3.531,3.531,0,0,0-.251-1.4A3.117,3.117,0,0,0,335.149,645.216Z" transform="translate(-289.081 -637.111)"/><path class="a" d="M311.053,644.364a7.634,7.634,0,0,0-.476-2.706,6.428,6.428,0,0,0-1.36-2.2,6.3,6.3,0,0,0-2.163-1.469,7.365,7.365,0,0,0-2.871-.536,9.383,9.383,0,0,0-2.452.313,9.085,9.085,0,0,0-2.151.88,8.506,8.506,0,0,0-3.162,3.168,8.925,8.925,0,0,0-.869,2.138,9.3,9.3,0,0,0-.307,2.4,7.618,7.618,0,0,0,.475,2.71,6.251,6.251,0,0,0,3.534,3.649,7.383,7.383,0,0,0,2.882.535,9.322,9.322,0,0,0,2.442-.313,9.063,9.063,0,0,0,2.149-.88,8.3,8.3,0,0,0,1.791-1.374,8.627,8.627,0,0,0,1.36-1.793,8.967,8.967,0,0,0,.87-2.132A9.263,9.263,0,0,0,311.053,644.364ZM307,646.919a5.779,5.779,0,0,1-.953,1.909,4.269,4.269,0,0,1-1.505,1.23,4.479,4.479,0,0,1-2,.435,3.674,3.674,0,0,1-1.527-.3,3.042,3.042,0,0,1-1.12-.854,3.794,3.794,0,0,1-.686-1.326,5.962,5.962,0,0,1-.234-1.729,8.755,8.755,0,0,1,.329-2.477,5.7,5.7,0,0,1,.947-1.914,4.331,4.331,0,0,1,1.5-1.236,4.4,4.4,0,0,1,2-.441,3.64,3.64,0,0,1,1.514.3,3.117,3.117,0,0,1,1.133.859,3.816,3.816,0,0,1,.7,1.337,5.871,5.871,0,0,1,.24,1.734A8.556,8.556,0,0,1,307,646.919Z" transform="translate(-274.721 -637.087)"/><path class="b" d="M255.623,657.732h3.411l1.382-11H257Z" transform="translate(-255.623 -641.79)"/><path class="b" d="M261.72,637.269a2.109,2.109,0,0,0-.652-.414,2.039,2.039,0,0,0-.767-.148,1.861,1.861,0,0,0-.747.154,2.239,2.239,0,0,0-.641.417,2.033,2.033,0,0,0-.451.616,1.7,1.7,0,0,0-.167.742,1.66,1.66,0,0,0,.167.737,2.073,2.073,0,0,0,.439.6,2.125,2.125,0,0,0,.629.414,1.869,1.869,0,0,0,.747.154,1.986,1.986,0,0,0,.763-.154,2.277,2.277,0,0,0,.663-.414,2.1,2.1,0,0,0,.468-.6,1.577,1.577,0,0,0,.178-.737,1.675,1.675,0,0,0-.173-.752A2.119,2.119,0,0,0,261.72,637.269Z" transform="translate(-256.911 -636.707)"/></g></svg>