<svg id="Layer_1" data-name="Layer 1" xmlns="http://www.w3.org/2000/svg" viewBox="0 0 1200 1200" ><defs><style>.cls-1{fill:#b5b5c3;}</style></defs><path class="cls-1" d="M0,590.63C30.14,544.3,67.71,504.16,106.22,465c71-72.18,149-135.35,238.92-182.79,82.63-43.59,169.75-70.66,264.25-68.65,86,1.83,165.75,27,241.28,66.76,103.44,54.41,191.58,128.5,270.73,213.61,24.41,26.24,46.61,54.58,69.09,82.55,12.8,15.92,12.52,30.92.1,47.11-95,123.91-208.39,226.83-347.28,299.69-79.23,41.55-163.52,65.25-253.81,63.16-71.65-1.66-139.65-19.57-204.31-49.62C232,865.6,110.58,755.84,8.56,623,5.3,618.78,2.84,613.94,0,609.38Zm1120.36,9.71c-8.63-10.33-16.2-19.71-24.1-28.8-79.44-91.46-168.7-171.08-276.63-227.89C754,309.11,684.91,286,610.08,283.89c-81.69-2.3-157,21.28-228.57,58.63-89.18,46.55-165.52,109.9-234.86,182-23.17,24.11-45,49.53-67.73,74.71,8.7,10.42,16,19.48,23.67,28.28C185.38,723,278.83,805.26,392.44,862.77c128.13,64.85,257.82,72,389.85,11.93C918.43,812.78,1024.21,713.76,1120.36,600.34Z"/><path class="cls-1" d="M600.3,354c135.4.22,245.59,110.73,245.49,246.21C845.7,736.07,734.68,846.5,598.69,846c-135.3-.5-245.23-111.3-244.89-246.82C354.13,463.86,464.81,353.79,600.3,354ZM775.51,599.88c0-96.79-79-175.63-175.83-175.59s-175.63,79-175.6,175.8,79.05,175.69,175.81,175.62S775.55,696.67,775.51,599.88Z"/><path class="cls-1" d="M522.9,485.92q25.5,0,40,15.32t14.5,42.24v14.81h14.32v34H577.4l.35,62.27q0,12.12,7.86,18.18t19.73,6.06q22.35,0,36.16-16.33t13.8-39.21q0-31.63-31.44-31.64A77.92,77.92,0,0,0,609.19,593V558.63a106.6,106.6,0,0,1,20.26-2q32.49,0,49.6,18.18t17.12,48.47q0,36.69-24.8,63.11t-66,26.43q-28.65,0-48.38-15.49t-19.74-42.75V592.29h-29v-34h29v-8.75q0-27.27-24.45-27.27-9.09,0-12.58.34V487.94A154,154,0,0,1,522.9,485.92Z"/></svg>