<svg width="16" height="16" viewBox="0 0 16 16" fill="none" xmlns="http://www.w3.org/2000/svg">
<path d="M13 16H3C1.343 16 0 14.657 0 13V3C0 1.343 1.343 0 3 0H13C14.657 0 16 1.343 16 3V13C16 14.657 14.657 16 13 16Z" fill="#6993FF"/>
<path d="M8.53516 3.19995V3.92127C10.3831 4.16141 11.8386 5.6169 12.0788 7.46489H12.8001C12.5526 5.2351 10.7649 3.44741 8.53516 3.19995V3.19995Z" fill="black"/>
<path d="M6.98828 5.44852L7.40987 6.57287H8.58489L9.01861 5.27189L8.60683 5.16895L8.01915 5.95235L7.40987 5.34308L6.98828 5.44852Z" fill="black"/>
<path d="M9.96217 8.94681C9.96217 8.39659 9.72471 7.87331 9.31061 7.51095L8.64638 6.92969H7.35308L6.68867 7.51095C6.27458 7.87331 6.03711 8.39659 6.03711 8.94681C6.03711 9.99891 6.89295 10.8548 7.94505 10.8548H8.05423C9.10633 10.8548 9.96217 9.99891 9.96217 8.94681V8.94681ZM8.71329 8.5354H8.35646V8.35698H7.82123C7.72292 8.35698 7.64282 8.43709 7.64282 8.5354C7.64282 8.6337 7.72292 8.71381 7.82123 8.71381H8.17805C8.47315 8.71381 8.71329 8.95395 8.71329 9.24904C8.71329 9.54414 8.47315 9.78428 8.17805 9.78428V10.1411H7.82123V9.78428H7.28599V9.24904H7.64282V9.42745H8.17805C8.27636 9.42745 8.35646 9.34735 8.35646 9.24904C8.35646 9.15074 8.27636 9.07063 8.17805 9.07063H7.82123C7.52614 9.07063 7.28599 8.83049 7.28599 8.5354C7.28599 8.2403 7.52614 8.00016 7.82123 8.00016V7.64334H8.17805V8.00016H8.71329V8.5354Z" fill="black"/>
<path d="M5.49091 4.7424L5.09626 4.15186C4.96566 4.25087 4.8406 4.35649 4.7207 4.468L5.22168 4.96898C5.30821 4.88959 5.39778 4.81412 5.49091 4.7424Z" fill="black"/>
<path d="M6.08788 4.35832L5.81455 3.69873C5.66718 3.7742 5.52499 3.85787 5.38672 3.94744L5.78065 4.53709C5.88038 4.47322 5.98261 4.41345 6.08788 4.35832V4.35832Z" fill="black"/>
<path d="M6.75293 4.08077L6.61288 3.37622C6.45142 3.42493 6.29459 3.48398 6.14062 3.54892L6.41288 4.20601C6.52385 4.15963 6.63715 4.11734 6.75293 4.08077Z" fill="black"/>
<path d="M7.46514 3.92127V3.19995C7.29333 3.21904 7.12509 3.25026 6.95898 3.28719L7.09815 3.98693C7.21875 3.95999 7.34079 3.93751 7.46514 3.92127Z" fill="black"/>
<path d="M3.98619 7.0979L3.28628 6.95874C3.24953 7.12484 3.21831 7.29308 3.19922 7.46489H3.92054C3.93677 7.34054 3.95925 7.21833 3.98619 7.0979V7.0979Z" fill="black"/>
<path d="M4.20675 6.41264L3.54966 6.14038C3.48471 6.29435 3.42584 6.45117 3.37695 6.61264L4.0815 6.75269C4.11808 6.6369 4.16036 6.52361 4.20675 6.41264Z" fill="black"/>
<path d="M4.96929 5.2212L4.46831 4.72021C4.3568 4.84011 4.25136 4.96517 4.15234 5.09577L4.74289 5.49042C4.81443 5.39729 4.89008 5.30755 4.96929 5.2212Z" fill="black"/>
<path d="M4.53775 5.78212L3.9481 5.38818C3.85836 5.52645 3.77469 5.66865 3.69922 5.81602L4.35881 6.08916C4.41412 5.9839 4.47388 5.88167 4.53775 5.78212V5.78212Z" fill="black"/>
<path d="M8.53516 12.079V12.8003C10.7649 12.5529 12.5526 10.7652 12.8001 8.5354H12.0788C11.8386 10.3834 10.3831 11.8389 8.53516 12.079V12.079Z" fill="black"/>
<path d="M3.92054 8.5354H3.19922C3.44668 10.7652 5.23436 12.5529 7.46416 12.8003V12.079C5.61617 11.8389 4.16068 10.3834 3.92054 8.5354V8.5354Z" fill="black"/>
</svg>
