<svg width="512" height="512" viewBox="0 0 512 512" fill="none" xmlns="http://www.w3.org/2000/svg">
<rect width="512" height="512" fill="#6993FF"/>
<path d="M245.029 184.517V142.882C219.503 145.322 195.553 156.323 177.07 174.096C158.587 191.869 146.657 215.37 143.22 240.781H185.023C188.126 226.417 195.529 213.339 206.249 203.288C216.969 193.237 230.495 186.689 245.029 184.517Z" fill="#32406B"/>
<path d="M272.795 143.613V185.811C286.028 188.988 298.099 195.829 307.622 205.552C317.146 215.274 323.737 227.484 326.639 240.781H368.443C365.149 216.42 354.047 193.784 336.803 176.266C319.558 158.748 297.1 147.291 272.795 143.613Z" fill="#32406B"/>
<path d="M273.273 368.274C297.899 364.438 320.58 352.611 337.823 334.616C355.066 316.62 365.914 293.455 368.696 268.688H327.117C324.647 282.451 318.25 295.207 308.697 305.419C299.143 315.631 286.842 322.864 273.273 326.245V368.274Z" fill="#32406B"/>
<path d="M184.573 268.688H142.966C145.885 294.589 157.619 318.7 176.201 336.98C194.782 355.259 219.082 366.596 245.028 369.09V327.568C230.068 325.287 216.196 318.385 205.355 307.826C194.514 297.268 187.247 283.582 184.573 268.688Z" fill="#32406B"/>
<path d="M410.388 268.688H368.668C365.892 293.452 355.05 316.617 337.811 334.613C320.573 352.609 297.896 364.437 273.273 368.274V410.05C308.965 406.019 342.15 389.719 367.159 363.936C392.167 338.153 407.447 304.486 410.388 268.688Z" fill="#0F0F17"/>
<path d="M272.795 101.809V143.613C297.114 147.301 319.583 158.776 336.828 176.315C354.074 193.855 365.167 216.514 368.443 240.893H410.219C406.823 205.434 391.297 172.232 366.26 146.893C341.223 121.554 308.211 105.63 272.795 101.809Z" fill="#0F0F17"/>
<path d="M143.219 240.781C146.634 215.35 158.553 191.823 177.038 174.027C195.523 156.232 219.486 145.215 245.028 142.769V101.275C215.153 103.341 186.512 114 162.554 131.968C138.596 149.936 120.344 174.447 109.996 202.549C109.63 203.59 109.32 204.631 108.955 205.644C108.589 206.657 107.998 208.457 107.576 209.751C104.45 219.828 102.357 230.196 101.331 240.696L143.219 240.781Z" fill="#0F0F17"/>
<path d="M245.028 369.09C219.081 366.601 194.778 355.266 176.195 336.985C157.612 318.705 145.88 294.591 142.966 268.688H101.275C104.305 305.634 120.472 340.271 146.844 366.323C173.216 392.375 208.048 408.118 245.028 410.697V369.09Z" fill="#0F0F17"/>
</svg>
