<svg width="16" height="16" viewBox="0 0 16 16" fill="none" xmlns="http://www.w3.org/2000/svg">
<path d="M13 16H3C1.343 16 0 14.657 0 13V3C0 1.343 1.343 0 3 0H13C14.657 0 16 1.343 16 3V13C16 14.657 14.657 16 13 16Z" fill="#6993FF"/>
<path fill-rule="evenodd" clip-rule="evenodd" d="M11.5378 8.87579C11.6884 8.95579 11.8046 9.08211 11.8864 9.20842C12.0456 9.46947 12.0327 9.78947 11.8778 10.0716L11.5766 10.5768C11.4173 10.8463 11.1204 11.0147 10.8149 11.0147C10.6643 11.0147 10.4965 10.9726 10.3588 10.8884C10.2469 10.8168 10.1178 10.7916 9.98015 10.7916C9.55416 10.7916 9.19701 11.1411 9.1841 11.5579C9.1841 12.0421 8.78823 12.4211 8.29338 12.4211H7.70818C7.20903 12.4211 6.81316 12.0421 6.81316 11.5579C6.80455 11.1411 6.44741 10.7916 6.02141 10.7916C5.87941 10.7916 5.75032 10.8168 5.64275 10.8884C5.50505 10.9726 5.33293 11.0147 5.18663 11.0147C4.87682 11.0147 4.57991 10.8463 4.4207 10.5768L4.1238 10.0716C3.96459 9.7979 3.95598 9.46947 4.11519 9.20842C4.18404 9.08211 4.31313 8.95579 4.45943 8.87579C4.57991 8.81684 4.65737 8.72 4.73052 8.60632C4.94567 8.24421 4.81658 7.76842 4.45082 7.55368C4.02483 7.31368 3.88713 6.77895 4.1324 6.36211L4.4207 5.86526C4.67028 5.44842 5.20385 5.30105 5.63414 5.54526C6.0085 5.74737 6.49474 5.61263 6.71419 5.25474C6.78304 5.13684 6.82177 5.01053 6.81316 4.88421C6.80455 4.72 6.85189 4.56421 6.93364 4.43789C7.09285 4.17684 7.38115 4.00842 7.69527 4H8.30199C8.62041 4 8.90871 4.17684 9.06792 4.43789C9.14537 4.56421 9.19701 4.72 9.1841 4.88421C9.17549 5.01053 9.21422 5.13684 9.28307 5.25474C9.50252 5.61263 9.98876 5.74737 10.3674 5.54526C10.7934 5.30105 11.3313 5.44842 11.5766 5.86526L11.8649 6.36211C12.1144 6.77895 11.9767 7.31368 11.5464 7.55368C11.1807 7.76842 11.0516 8.24421 11.271 8.60632C11.3399 8.72 11.4173 8.81684 11.5378 8.87579ZM6.7832 8.21463C6.7832 8.87568 7.32968 9.40199 8.00525 9.40199C8.68082 9.40199 9.21439 8.87568 9.21439 8.21463C9.21439 7.55357 8.68082 7.02305 8.00525 7.02305C7.32968 7.02305 6.7832 7.55357 6.7832 8.21463Z" fill="black"/>
</svg>
