<svg width="27" height="29" viewBox="0 0 27 29" fill="none" xmlns="http://www.w3.org/2000/svg">
<path d="M12.1866 20.9547C12.735 21.3939 13.5148 21.3937 14.0629 20.9541L23.8583 13.0977L24.7834 12.3597C25.5351 11.76 25.5363 10.6179 24.7859 10.0166L14.0629 1.42464C13.5148 0.985411 12.7352 0.985413 12.1871 1.42464L1.45964 10.0201C0.71064 10.6203 0.710154 11.7597 1.45864 12.3605L2.37708 13.0977L12.1866 20.9547Z" fill="#6993FF"/>
<path opacity="0.3" fill-rule="evenodd" clip-rule="evenodd" d="M14.0456 24.7711C13.4975 25.2102 12.7181 25.2103 12.1699 24.7713L3.41692 17.7605C2.83661 17.2957 1.98773 17.3981 1.53461 17.9876C1.0882 18.5683 1.1966 19.4009 1.77682 19.8481L12.2047 27.8835C12.7442 28.2992 13.496 28.2993 14.0356 27.8836L24.4588 19.8549C25.0439 19.4041 25.153 18.5644 24.7023 17.9792C24.2454 17.3859 23.3906 17.2833 22.8062 17.7515L14.0456 24.7711Z" fill="#6993FF"/>
</svg>
