<svg width="16" height="16" viewBox="0 0 16 16" fill="none" xmlns="http://www.w3.org/2000/svg">
<path d="M13 16H3C1.343 16 0 14.657 0 13V3C0 1.343 1.343 0 3 0H13C14.657 0 16 1.343 16 3V13C16 14.657 14.657 16 13 16Z" fill="#6993FF"/>
<path d="M12.0645 10.7258C12.0645 10.9185 12.0266 11.1093 11.9529 11.2872C11.8791 11.4652 11.7711 11.6269 11.6348 11.7631L10.8912 12.5067L10.1579 12.6534H6.0512L5.31786 12.5067L4.57426 11.7631C4.40594 11.5948 4.28111 11.388 4.21052 11.1606C4.13994 10.9332 4.12572 10.6921 4.1691 10.458C4.1856 10.3697 4.21009 10.283 4.24225 10.1991L4.69398 9.02469C4.752 8.87395 4.84052 8.7368 4.95399 8.62185C5.06747 8.50689 5.20345 8.4166 5.35343 8.35663L6.46681 7.91131L7.07787 7.66675H9.1312L9.98663 8.00903L10.8556 8.35663C11.0056 8.4166 11.1416 8.50689 11.2551 8.62185C11.3685 8.7368 11.4571 8.87395 11.5151 9.0247L11.9668 10.1991C12.0314 10.3672 12.0645 10.5458 12.0645 10.7258V10.7258Z" fill="black"/>
<path d="M9.98857 8.00903L9.42647 9.13341H7.0798L6.46875 7.91131L7.0798 7.66675H9.13313L9.98857 8.00903Z" fill="#6993FF"/>
<path d="M6.05273 10.8933H10.1594V12.6533H6.05273V10.8933Z" fill="#6993FF"/>
<path d="M7.51953 10.8933H8.69286V12.6533H7.51953V10.8933Z" fill="#6993FF"/>
<path d="M8.53382 7.96021V8.69354L8.25464 9.13354H7.9613L7.66797 8.69354V7.96021H8.53382Z" fill="#6993FF"/>
<path d="M6.78711 5.17334V6.78667C6.78711 6.96002 6.82125 7.13167 6.88759 7.29181C6.95392 7.45196 7.05115 7.59748 7.17373 7.72005C7.2963 7.84262 7.44182 7.93986 7.60196 8.00619C7.76211 8.07253 7.93376 8.10667 8.10711 8.10667H8.10711C8.28045 8.10667 8.4521 8.07253 8.61225 8.00619C8.7724 7.93985 8.91792 7.84262 9.04049 7.72005C9.16306 7.59748 9.26029 7.45196 9.32663 7.29181C9.39296 7.13166 9.4271 6.96001 9.4271 6.78667L9.4271 5.17334L8.98711 4.58667H7.37378L6.78711 5.17334Z" fill="#6993FF"/>
<path d="M9.4262 5.31982H8.17953C8.00449 5.31982 7.83661 5.25028 7.71284 5.12651C7.58907 5.00273 7.51953 4.83486 7.51953 4.65982V4.58648C7.51953 4.46979 7.56589 4.35787 7.6484 4.27536C7.73092 4.19284 7.84284 4.14648 7.95953 4.14648H8.39953C8.67182 4.14648 8.93296 4.25465 9.12549 4.44719C9.31803 4.63973 9.4262 4.90086 9.4262 5.17315V5.31982Z" fill="black"/>
<path d="M6.78711 5.32012V4.73346C6.78711 4.61676 6.83347 4.50485 6.91598 4.42233C6.9985 4.33981 7.11041 4.29346 7.22711 4.29346C7.30491 4.29346 7.37952 4.32436 7.43453 4.37937C7.48954 4.43438 7.52044 4.50899 7.52044 4.58679V4.75857C7.52044 4.83232 7.50592 4.90534 7.4777 4.97347C7.44948 5.0416 7.40811 5.1035 7.35597 5.15565C7.30382 5.20779 7.24192 5.24916 7.17379 5.27738C7.10566 5.3056 7.03264 5.32012 6.95889 5.32012H6.78711Z" fill="black"/>
<path d="M8.40039 9.13342C8.55598 9.13342 8.70521 9.07161 8.81523 8.96159C8.92525 8.85157 8.98706 8.70234 8.98706 8.54675V8.25342H10.1604V8.54675C10.1604 8.70234 10.0986 8.85157 9.98856 8.96159C9.87854 9.07161 9.72932 9.13342 9.57372 9.13342H8.40039Z" fill="#6993FF"/>
<path d="M6.05273 9.1333H10.1594V10.8933H6.05273V9.1333Z" fill="#6993FF"/>
<path d="M7.51953 9.1333H8.69286V10.8933H7.51953V9.1333Z" fill="#6993FF"/>
<path d="M5.84014 11.5331L6.55811 11.3536C6.58318 11.3473 6.60945 11.3477 6.63435 11.3546C6.65926 11.3614 6.68195 11.3747 6.70023 11.393C6.72469 11.4174 6.73992 11.4496 6.74333 11.484C6.74674 11.5185 6.73812 11.553 6.71893 11.5818L6.49365 11.9197L7.3384 12.1611C7.39081 12.176 7.43691 12.2077 7.46974 12.2512C7.50256 12.2947 7.52031 12.3477 7.52031 12.4022C7.52031 12.4352 7.51383 12.4678 7.50122 12.4982C7.48862 12.5286 7.47014 12.5563 7.44685 12.5796C7.42356 12.6029 7.39591 12.6213 7.36548 12.6339C7.33505 12.6465 7.30244 12.653 7.2695 12.653H6.05365L5.32031 12.5064L5.40374 12.0058C5.42253 11.893 5.47384 11.7883 5.55137 11.7043C5.6289 11.6203 5.72926 11.5608 5.84014 11.5331V11.5331Z" fill="#6993FF"/>
<path d="M10.3735 11.5331L9.65556 11.3536C9.63049 11.3473 9.60422 11.3477 9.57932 11.3546C9.55441 11.3614 9.53172 11.3747 9.51344 11.393C9.48898 11.4174 9.47375 11.4496 9.47034 11.484C9.46693 11.5185 9.47556 11.553 9.49475 11.5818L9.72003 11.9197L8.87527 12.1611C8.82286 12.176 8.77676 12.2077 8.74394 12.2512C8.71111 12.2947 8.69336 12.3477 8.69336 12.4022C8.69336 12.4352 8.69985 12.4678 8.71245 12.4982C8.72506 12.5286 8.74353 12.5563 8.76682 12.5796C8.79011 12.6029 8.81776 12.6213 8.84819 12.6339C8.87862 12.6465 8.91123 12.653 8.94417 12.653H10.16L10.8934 12.5064L10.8099 12.0058C10.7911 11.893 10.7398 11.7883 10.6623 11.7043C10.5848 11.6203 10.4844 11.5608 10.3735 11.5331V11.5331Z" fill="#6993FF"/>
<path d="M11.6541 8.97202C11.5886 8.80253 11.489 8.64832 11.3614 8.51899C11.2338 8.38966 11.0809 8.28798 10.9123 8.22028L9.33456 7.58919C9.49099 7.35083 9.57401 7.07178 9.57332 6.78667L9.57333 5.17333C9.57298 4.86225 9.44925 4.56402 9.22928 4.34405C9.00932 4.12408 8.71108 4.00035 8.4 4H7.96C7.8689 4.00001 7.77906 4.02125 7.69761 4.06203C7.61615 4.10282 7.54533 4.16203 7.49075 4.23497C7.41468 4.17757 7.32196 4.14657 7.22667 4.14667C7.07113 4.14684 6.92201 4.20871 6.81203 4.31869C6.70204 4.42868 6.64018 4.57779 6.64 4.73333V6.78667C6.63975 7.07174 6.7231 7.35062 6.87972 7.58882L5.30104 8.22028C5.13243 8.28798 4.97957 8.38966 4.85195 8.51899C4.72434 8.64832 4.6247 8.80253 4.55926 8.97202L4.10756 10.1465C3.99551 10.4378 3.97036 10.7554 4.03515 11.0607C4.09995 11.366 4.2519 11.646 4.47261 11.8667L5.21629 12.6104C5.23673 12.6309 5.26284 12.6448 5.29124 12.6505L6.02457 12.7972C6.03404 12.799 6.04368 12.8 6.05333 12.8H10.16C10.1697 12.8 10.1793 12.799 10.1888 12.7972L10.9221 12.6505C10.9505 12.6448 10.9766 12.6309 10.997 12.6104L11.7407 11.8667C11.9614 11.646 12.1134 11.366 12.1782 11.0607C12.243 10.7554 12.2178 10.4378 12.1058 10.1465L11.6541 8.97202ZM9.6911 11.2116C9.64146 11.1993 9.58948 11.2 9.5402 11.2137C9.49091 11.2273 9.44597 11.2535 9.40972 11.2895C9.39638 11.3029 9.38436 11.3176 9.37384 11.3333H8.84V11.04H10.0133V11.2922L9.6911 11.2116ZM7.54438 5.15579C7.61968 5.25257 7.71608 5.33088 7.82623 5.38476C7.93638 5.43863 8.05738 5.46665 8.18 5.46667H9.27999V6.78667C9.28005 6.94079 9.24975 7.09341 9.19081 7.23582C9.13187 7.37823 9.04545 7.50763 8.93649 7.61664C8.82754 7.72564 8.69817 7.81211 8.55578 7.8711C8.4134 7.93009 8.26079 7.96046 8.10666 7.96046C7.95254 7.96046 7.79993 7.93009 7.65754 7.8711C7.51516 7.81211 7.38579 7.72564 7.27683 7.61664C7.16787 7.50763 7.08145 7.37823 7.02251 7.23582C6.96358 7.09341 6.93327 6.94079 6.93333 6.78667V5.46667H6.95845C7.07408 5.46663 7.18793 5.43828 7.29007 5.38409C7.39221 5.3299 7.47952 5.25151 7.54438 5.15579ZM8.84 10.4533H10.0133V10.7467H8.84V10.4533ZM10.0133 10.16H8.84V9.86667H10.0133V10.16ZM8.54667 10.7467H7.66667V9.28H8.54667V10.7467ZM8.38585 8.65072L8.1727 8.98667H8.03849L7.81333 8.64893V8.22382C8.00215 8.26216 8.19665 8.26315 8.38585 8.22675V8.65072ZM7.52 8.13051V8.69333C7.52 8.72229 7.52857 8.7506 7.54464 8.77469L7.68595 8.98667H7.17065L6.67136 7.98809L7.074 7.82703C7.20271 7.9548 7.35391 8.05768 7.52 8.13051ZM7.37333 9.28V9.57333H6.49333V9.86667H7.37333V10.16H6.49333V10.4533H7.37333V10.7467H6.2V9.28H7.37333ZM6.2 11.04H7.37333V11.3333H6.83951C6.82898 11.3176 6.81696 11.3029 6.80362 11.2895C6.76736 11.2535 6.72242 11.2273 6.67313 11.2137C6.62384 11.2001 6.57187 11.1993 6.52222 11.2116L6.2 11.2922V11.04ZM6.84066 11.6634C6.84839 11.6517 6.85526 11.6394 6.86123 11.6267H7.37333V11.92H7.02722L6.72682 11.8342L6.84066 11.6634ZM7.66667 11.04H8.54667V12.5067H7.66667V11.04ZM9.18611 11.92H8.84V11.6267H9.35211C9.35808 11.6394 9.36496 11.6517 9.37269 11.6634L9.48651 11.8342L9.18611 11.92ZM8.84 9.57333V9.28H10.0133V9.57333H8.84ZM10.0133 8.54667C10.0132 8.66332 9.9668 8.77516 9.88431 8.85765C9.80183 8.94014 9.68999 8.98653 9.57333 8.98667H8.98626C9.08186 8.85991 9.1335 8.70543 9.13333 8.54667V8.4H10.0133V8.54667ZM8.98667 8.10667C8.94777 8.10667 8.91046 8.12212 8.88296 8.14962C8.85545 8.17713 8.84 8.21444 8.84 8.25333V8.54667C8.83988 8.64005 8.8101 8.73098 8.75496 8.80635C8.69982 8.88172 8.62217 8.93762 8.5332 8.96601L8.65635 8.77191C8.67127 8.74842 8.67918 8.72116 8.67918 8.69333V8.13758C8.85119 8.06451 9.00761 7.95919 9.14002 7.82731L9.83843 8.10667H8.98667ZM7.96 4.29333H8.4C8.63331 4.2936 8.85699 4.38639 9.02196 4.55137C9.18694 4.71634 9.27974 4.94002 9.28 5.17333H8.18C8.0439 5.17318 7.91342 5.11905 7.81719 5.02281C7.72095 4.92658 7.66682 4.7961 7.66667 4.66V4.58667C7.66676 4.5089 7.69769 4.43434 7.75268 4.37935C7.80767 4.32436 7.88223 4.29342 7.96 4.29333ZM7.22667 4.44C7.26555 4.44004 7.30283 4.45551 7.33033 4.48301C7.35782 4.5105 7.37329 4.54778 7.37333 4.58667V4.75845C7.37321 4.86845 7.32946 4.9739 7.25168 5.05168C7.1739 5.12946 7.06845 5.17321 6.95845 5.17333H6.93333V4.73333C6.93342 4.65556 6.96436 4.581 7.01935 4.52601C7.07434 4.47102 7.1489 4.44009 7.22667 4.44ZM5.25876 11.982L5.22218 12.2014L4.68003 11.6593C4.49944 11.4787 4.37511 11.2496 4.32209 10.9998C4.26908 10.75 4.28966 10.4901 4.38134 10.2518L4.83304 9.07733C4.88394 8.9455 4.96144 8.82556 5.06069 8.72497C5.15995 8.62438 5.27885 8.54529 5.40998 8.49263L6.39806 8.09741L6.84269 8.98667H6.05333C6.01444 8.98667 5.97713 9.00212 5.94962 9.02962C5.92212 9.05713 5.90667 9.09443 5.90667 9.13333V11.3655L5.8666 11.3755L5.68723 11.1064C5.63898 11.0342 5.61326 10.9493 5.61333 10.8624V10.3067H5.32V10.8624C5.31986 11.0072 5.36273 11.1487 5.44317 11.2691L5.58715 11.4851C5.50068 11.5403 5.42677 11.6131 5.3702 11.6987C5.31363 11.7843 5.27566 11.8808 5.25876 11.982ZM6.06785 12.5067L5.48802 12.3907L5.5481 12.0302C5.56217 11.9456 5.60065 11.867 5.6588 11.804C5.71695 11.741 5.79224 11.6964 5.87541 11.6757L6.59336 11.4962L6.59489 11.4962L6.59622 11.497L6.59706 11.4988L6.59658 11.5007L6.3713 11.8386C6.35849 11.8579 6.3504 11.8798 6.34769 11.9028C6.34497 11.9257 6.34771 11.9489 6.35567 11.9706C6.36364 11.9923 6.37661 12.0118 6.39353 12.0275C6.41045 12.0432 6.43084 12.0547 6.45304 12.061L7.29781 12.3024C7.32196 12.3093 7.3428 12.3247 7.3565 12.3457C7.37019 12.3668 7.37581 12.3921 7.37233 12.417C7.36884 12.4418 7.35649 12.4646 7.33753 12.4811C7.31858 12.4976 7.29431 12.5067 7.26919 12.5067H6.06785ZM10.1455 12.5067H8.94415C8.91903 12.5067 8.89475 12.4976 8.8758 12.4811C8.85685 12.4646 8.84449 12.4418 8.84101 12.417C8.83752 12.3921 8.84315 12.3668 8.85684 12.3457C8.87054 12.3247 8.89138 12.3093 8.91554 12.3024L9.76029 12.061C9.78249 12.0547 9.80288 12.0432 9.8198 12.0275C9.83672 12.0118 9.84969 11.9923 9.85766 11.9706C9.86562 11.9489 9.86836 11.9257 9.86565 11.9028C9.86293 11.8798 9.85484 11.8579 9.84203 11.8386L9.61677 11.5008L9.61627 11.4988L9.61713 11.497L9.61809 11.4963L9.61924 11.4961L10.3379 11.6757C10.4211 11.6964 10.4964 11.741 10.5545 11.804C10.6127 11.867 10.6512 11.9456 10.6652 12.0302L10.7253 12.3907L10.1455 12.5067ZM11.5333 11.6593L10.9912 12.2014L10.9546 11.982C10.9377 11.8808 10.8997 11.7843 10.8431 11.6987C10.7866 11.6131 10.7127 11.5403 10.6262 11.4851L10.7702 11.2691C10.8506 11.1487 10.8935 11.0072 10.8933 10.8624V10.16H10.6V10.8624C10.6001 10.9493 10.5744 11.0342 10.5261 11.1064L10.3467 11.3755L10.3067 11.3655V9.13333C10.3067 9.09443 10.2912 9.05713 10.2637 9.02962C10.2362 9.00212 10.1989 8.98667 10.16 8.98667C10.2556 8.85991 10.3068 8.70543 10.3067 8.54667V8.29396L10.8033 8.49263C10.9345 8.54529 11.0534 8.62438 11.1526 8.72497C11.2519 8.82556 11.3294 8.9455 11.3803 9.07733L11.832 10.2518C11.9237 10.4901 11.9443 10.75 11.8912 10.9998C11.8382 11.2496 11.7139 11.4787 11.5333 11.6593Z" fill="black"/>
<path d="M7.22656 5.76001H7.81323V6.05334H7.22656V5.76001Z" fill="black"/>
<path d="M7.81445 7.37347H7.96112C8.07777 7.37334 8.18961 7.32694 8.2721 7.24445C8.35459 7.16196 8.40099 7.05012 8.40112 6.93347V6.64014H8.10779V6.93347C8.10774 6.97235 8.09228 7.00963 8.06478 7.03713C8.03728 7.06463 8 7.08009 7.96112 7.08014H7.81445V7.37347Z" fill="black"/>
<path d="M7.51971 6.49304C7.60072 6.49304 7.66638 6.42738 7.66638 6.34637C7.66638 6.26537 7.60072 6.19971 7.51971 6.19971C7.43871 6.19971 7.37305 6.26537 7.37305 6.34637C7.37305 6.42738 7.43871 6.49304 7.51971 6.49304Z" fill="black"/>
<path d="M8.40039 5.76001H8.98706V6.05334H8.40039V5.76001Z" fill="black"/>
<path d="M8.69159 6.49304C8.77259 6.49304 8.83826 6.42738 8.83826 6.34637C8.83826 6.26537 8.77259 6.19971 8.69159 6.19971C8.61059 6.19971 8.54492 6.26537 8.54492 6.34637C8.54492 6.42738 8.61059 6.49304 8.69159 6.49304Z" fill="black"/>
</svg>
