<svg width="16" height="16" viewBox="0 0 16 16" fill="none" xmlns="http://www.w3.org/2000/svg">
<path d="M13 16H3C1.343 16 0 14.657 0 13V3C0 1.343 1.343 0 3 0H13C14.657 0 16 1.343 16 3V13C16 14.657 14.657 16 13 16Z" fill="#6993FF"/>
<path fill-rule="evenodd" clip-rule="evenodd" d="M7.45072 7.3987H12.0107C12.3387 7.3987 12.6107 7.6707 12.6107 7.9987V9.4787C12.6107 9.8147 12.3387 10.0787 12.0107 10.0787C11.6747 10.0787 11.4107 9.8147 11.4107 9.4787V8.5987H10.3467V9.4787C10.3467 9.8147 10.0747 10.0787 9.74672 10.0787C9.41072 10.0787 9.14672 9.8147 9.14672 9.4787V8.5987H7.45072C7.19472 9.4547 6.41072 10.0787 5.47472 10.0787C4.32272 10.0787 3.38672 9.1507 3.38672 7.9987C3.38672 6.8547 4.32272 5.9187 5.47472 5.9187C6.41072 5.9187 7.19472 6.5427 7.45072 7.3987ZM4.58789 7.99875C4.58789 8.48675 4.98789 8.87875 5.47589 8.87875C5.95589 8.87875 6.35589 8.48675 6.35589 7.99875C6.35589 7.51075 5.95589 7.11875 5.47589 7.11875C4.98789 7.11875 4.58789 7.51075 4.58789 7.99875Z" fill="black"/>
</svg>
