<svg width="16" height="16" viewBox="0 0 16 16" fill="none" xmlns="http://www.w3.org/2000/svg">
<path d="M13 16H3C1.343 16 0 14.657 0 13V3C0 1.343 1.343 0 3 0H13C14.657 0 16 1.343 16 3V13C16 14.657 14.657 16 13 16Z" fill="#6993FF"/>
<path d="M8 8.27274C8 8.12273 7.87727 8 7.72726 8H6.36356V9.09096C6.36356 9.29169 6.20101 9.45479 5.99973 9.45479C5.79899 9.45479 5.63589 9.29224 5.63589 9.09096V8H4.27274C4.12273 8 4 8.12273 4 8.27274V11.7273C4 11.8773 4.12273 12 4.27274 12H7.72726C7.87727 12 8 11.8773 8 11.7273V8.27274Z" fill="#1E1E2D"/>
<path d="M12.8008 8.27274C12.8008 8.12273 12.6781 8 12.5281 8H11.1646V9.09096C11.1646 9.29169 11.002 9.45479 10.8008 9.45479C10.6001 9.45479 10.437 9.29224 10.437 9.09096V8H9.07348C8.9235 8 8.80078 8.12273 8.80078 8.27274V11.7273C8.80078 11.8773 8.9235 12 9.07348 12H12.5281C12.6781 12 12.8008 11.8773 12.8008 11.7273V8.27274Z" fill="#1E1E2D"/>
<path d="M10.4004 3.47269C10.4004 3.32268 10.2777 3.19995 10.1277 3.19995H8.76418V4.29091C8.76418 4.49165 8.60164 4.65474 8.40039 4.65474C8.19968 4.65474 8.03661 4.49219 8.03661 4.29091V3.19995H6.67309C6.52311 3.19995 6.40039 3.32268 6.40039 3.47269V6.92721C6.40039 7.07722 6.52311 7.19995 6.67309 7.19995H10.1271C10.2771 7.19995 10.3998 7.07722 10.3998 6.92721V3.47269H10.4004Z" fill="#1E1E2D"/>
</svg>
