<svg width="16" height="16" viewBox="0 0 16 16" fill="none" xmlns="http://www.w3.org/2000/svg">
<path d="M13 16H3C1.343 16 0 14.657 0 13V3C0 1.343 1.343 0 3 0H13C14.657 0 16 1.343 16 3V13C16 14.657 14.657 16 13 16Z" fill="#6993FF"/>
<path d="M11.9175 6.20905C11.9163 6.20674 11.9153 6.20435 11.9139 6.20205C11.9128 6.20017 11.9115 6.19848 11.9104 6.19662C11.8535 6.10097 11.7723 6.02183 11.6749 5.96709L8.31492 4.08177C8.21875 4.02816 8.1103 4 8 4C7.8897 4 7.78126 4.02815 7.68508 4.08175L4.32504 5.96712C4.22601 6.02276 4.14373 6.10362 4.08668 6.20135C4.08607 6.20239 4.08535 6.20333 4.08477 6.20437C4.08373 6.20621 4.08296 6.20813 4.08196 6.21C4.02834 6.30474 4.00012 6.41156 4 6.52023V10.2793C4.00011 10.3918 4.03025 10.5022 4.08736 10.5994C4.14446 10.6966 4.22649 10.777 4.32508 10.8324L7.68508 12.7177C7.77456 12.7677 7.87485 12.7955 7.97746 12.7988C7.98385 12.7993 7.99018 12.7999 7.99668 12.8C7.99781 12.8 7.99894 12.8 8.00008 12.8C8.00877 12.8 8.01731 12.7994 8.02582 12.7987C8.1273 12.7949 8.2264 12.7672 8.31492 12.7178L11.675 10.8324C11.7735 10.7769 11.8556 10.6965 11.9127 10.5994C11.9698 10.5022 11.9999 10.3918 12 10.2793V6.52023C11.9999 6.41119 11.9715 6.30402 11.9175 6.20905V6.20905ZM8 4.63488L11.0325 6.33647L9.96357 6.94327L6.90738 5.24797L8 4.63488ZM8.04062 8.03485L4.97316 6.33328L6.25512 5.61395L9.31512 7.31137L8.04062 8.03485ZM8.32523 11.9822L8.36056 8.58512L9.64539 7.85577V9.21423C9.64539 9.29849 9.6791 9.37929 9.73911 9.43887C9.79913 9.49844 9.88052 9.53191 9.96539 9.53191C10.0503 9.53191 10.1316 9.49844 10.1917 9.43887C10.2517 9.37929 10.2854 9.29849 10.2854 9.21423V7.49247L11.36 6.88246V10.2793L8.32523 11.9822Z" fill="black"/>
</svg>
