<svg width="16" height="16" viewBox="0 0 16 16" fill="none" xmlns="http://www.w3.org/2000/svg">
<path fill-rule="evenodd" clip-rule="evenodd" d="M12.1437 1.92797C12.1437 0.863987 13.0077 0 14.0717 0C15.1357 0 15.9997 0.863987 15.9997 1.92797C15.9997 2.99196 15.1357 3.85594 14.0717 3.85594C13.0077 3.85594 12.1437 2.99196 12.1437 1.92797ZM9.06354 10.2071L11.3755 7.22398L11.3435 7.23998C11.4715 7.06399 11.4955 6.83999 11.4075 6.63999C11.3203 6.44 11.1275 6.304 10.9203 6.288C10.7035 6.264 10.4883 6.36 10.3595 6.53599L8.42434 9.03996L6.20755 7.29598C6.07155 7.19198 5.91155 7.15119 5.75155 7.16798C5.59235 7.19198 5.44835 7.27918 5.35156 7.40718L2.98437 10.4879L2.93557 10.5599C2.79957 10.8151 2.86357 11.1431 3.10357 11.3199C3.21557 11.3919 3.33557 11.4399 3.47156 11.4399C3.65636 11.4479 3.83156 11.3511 3.94356 11.1999L5.95155 8.61516L8.23154 10.3279L8.30354 10.3751C8.55954 10.5111 8.87954 10.4479 9.06354 10.2071ZM10.7599 1.4242C10.7279 1.62419 10.7119 1.82419 10.7119 2.02419C10.7119 3.82416 12.1679 5.27934 13.9599 5.27934C14.1599 5.27934 14.3519 5.25614 14.5519 5.22414V11.6792C14.5519 14.392 12.9519 16 10.2319 16H4.32078C1.59999 16 0 14.392 0 11.6792V5.76013C0 3.04017 1.59999 1.4242 4.32078 1.4242H10.7599Z" fill="#6993FF"/>
</svg>
