<svg width="16" height="16" viewBox="0 0 16 16" fill="none" xmlns="http://www.w3.org/2000/svg">
<path d="M13 16H3C1.343 16 0 14.657 0 13V3C0 1.343 1.343 0 3 0H13C14.657 0 16 1.343 16 3V13C16 14.657 14.657 16 13 16Z" fill="#6993FF"/>
<path fill-rule="evenodd" clip-rule="evenodd" d="M10.1165 6.11643C10.1165 7.29125 9.1745 8.23326 7.99886 8.23326C6.82361 8.23326 5.88125 7.29125 5.88125 6.11643C5.88125 4.94161 6.82361 4 7.99886 4C9.1745 4 10.1165 4.94161 10.1165 6.11643ZM8.0008 12.0002C6.26574 12.0002 4.80078 11.7182 4.80078 10.6301C4.80078 9.54173 6.27494 9.26973 8.0008 9.26973C9.73626 9.26973 11.2008 9.55173 11.2008 10.6397C11.2008 11.7282 9.72665 12.0002 8.0008 12.0002Z" fill="black"/>
</svg>
