<svg width="16" height="14" viewBox="0 0 16 14" fill="none" xmlns="http://www.w3.org/2000/svg">
<path d="M10.6928 0L13.2616 4.43389H16V6.02824H15.0664L14.4608 13.269C14.4442 13.4682 14.353 13.6539 14.2054 13.7893C14.0578 13.9247 13.8646 13.9999 13.664 14H2.336C2.1354 13.9999 1.94216 13.9247 1.79458 13.7893C1.647 13.6539 1.55585 13.4682 1.5392 13.269L0.9328 6.02824H0V4.43389H2.7376L5.3072 0L6.6928 0.797176L4.5856 4.43389H11.4136L9.3072 0.797176L10.6928 0ZM8.8 7.62259H7.2V10.8113H8.8V7.62259ZM5.6 7.62259H4V10.8113H5.6V7.62259ZM12 7.62259H10.4V10.8113H12V7.62259Z" fill="#6993FF"/>
</svg>
