<svg width="16" height="16" viewBox="0 0 16 16" fill="none" xmlns="http://www.w3.org/2000/svg">
<path d="M13 16H3C1.343 16 0 14.657 0 13V3C0 1.343 1.343 0 3 0H13C14.657 0 16 1.343 16 3V13C16 14.657 14.657 16 13 16Z" fill="#6993FF"/>
<path d="M4.2961 5.89502C3.93343 5.89502 3.63477 6.19369 3.63477 6.56346V12.0604C3.63477 12.423 3.93343 12.7217 4.2961 12.7217C4.66588 12.7217 4.96454 12.423 4.96454 12.0604V6.56346C4.96454 6.19369 4.66588 5.89502 4.2961 5.89502" fill="black"/>
<path d="M8.02852 3.271C7.66585 3.271 7.36719 3.56966 7.36719 3.93944V12.0603C7.36719 12.423 7.66585 12.7217 8.02852 12.7217C8.3983 12.7217 8.69697 12.423 8.69697 12.0603V3.93944C8.69697 3.56966 8.3983 3.271 8.02852 3.271" fill="black"/>
<path d="M11.7114 8.79639C11.3416 8.79639 11.043 9.09505 11.043 9.46483V12.0604C11.043 12.4231 11.3416 12.7217 11.7043 12.7217C12.0741 12.7217 12.3727 12.4231 12.3727 12.0604V9.46483C12.3727 9.09505 12.0741 8.79639 11.7114 8.79639" fill="black"/>
</svg>
