<svg width="16" height="16" viewBox="0 0 16 16" fill="none" xmlns="http://www.w3.org/2000/svg">
<path d="M13 16H3C1.343 16 0 14.657 0 13V3C0 1.343 1.343 0 3 0H13C14.657 0 16 1.343 16 3V13C16 14.657 14.657 16 13 16Z" fill="#6993FF"/>
<g clip-path="url(#clip0)">
<path d="M9.03878 7.06452C7.67814 7.06452 6.57104 8.17161 6.57104 9.53226C6.57104 10.8929 7.67814 12 9.03878 12C10.3994 12 11.5065 10.8929 11.5065 9.53226C11.5065 8.17161 10.3994 7.06452 9.03878 7.06452ZM8.50846 8.55306C8.69749 8.55306 8.85136 8.70677 8.85136 8.89581C8.85136 9.08498 8.69749 9.23887 8.50846 9.23887C8.31943 9.23887 8.16556 9.085 8.16556 8.89581C8.16556 8.70677 8.31943 8.55306 8.50846 8.55306ZM9.5691 10.5115C9.38007 10.5115 9.2262 10.3577 9.2262 10.1687C9.2262 9.97953 9.38007 9.82565 9.5691 9.82565C9.75814 9.82565 9.91201 9.97952 9.91201 10.1687C9.91201 10.3577 9.75814 10.5115 9.5691 10.5115ZM9.85765 9.07839L8.58491 10.3511C8.48351 10.4522 8.32088 10.4518 8.21991 10.3511C8.1191 10.2503 8.1191 10.0869 8.21991 9.98611L9.49265 8.71339C9.59346 8.61258 9.75685 8.61258 9.85765 8.71339C9.95846 8.81419 9.95846 8.97758 9.85765 9.07839ZM8.34523 4H6.66781C6.47178 4 6.34738 4.21042 6.44152 4.3821L6.93443 5.28161C6.58343 5.49045 6.47072 5.93729 6.66685 6.28387C5.79717 6.58 5.12072 7.32403 4.93991 8.26613L4.51765 10.4665C4.36497 11.2627 4.97533 12 5.78491 12H6.85973C7.05396 12 7.14901 11.7639 7.00946 11.6288C5.35546 10.0275 6.12651 7.24871 8.33364 6.69924C8.53894 6.64813 8.56104 6.35653 8.3462 6.28385C8.54231 5.93732 8.42967 5.49045 8.07862 5.2816L8.57152 4.38208C8.66581 4.21016 8.54097 4 8.34523 4V4ZM7.70007 6.14516H7.31297C7.16475 6.14516 7.04943 6.00145 7.09878 5.84613C7.12797 5.75403 7.21636 5.69355 7.31297 5.69355H7.70007C7.79668 5.69355 7.88507 5.75403 7.91426 5.84613C7.96362 6.00145 7.8483 6.14516 7.70007 6.14516Z" fill="black"/>
</g>
<defs>
<clipPath id="clip0">
<rect width="8" height="8" fill="white" transform="translate(4 4)"/>
</clipPath>
</defs>
</svg>
