<svg width="16" height="16" viewBox="0 0 16 16" fill="none" xmlns="http://www.w3.org/2000/svg">
<path d="M13 16H3C1.343 16 0 14.657 0 13V3C0 1.343 1.343 0 3 0H13C14.657 0 16 1.343 16 3V13C16 14.657 14.657 16 13 16Z" fill="#6993FF"/>
<path d="M10.0258 4H5.90078C5.60915 4.00033 5.32955 4.11633 5.12333 4.32255C4.91711 4.52877 4.80111 4.80836 4.80078 5.1V9.5C4.80111 9.79164 4.91711 10.0712 5.12333 10.2774C5.32955 10.4837 5.60915 10.5997 5.90078 10.6H6.31327L5.81827 11.26C5.77451 11.3184 5.75572 11.3917 5.76604 11.4639C5.77636 11.5361 5.81494 11.6013 5.87329 11.645C5.93164 11.6888 6.00498 11.7076 6.07719 11.6972C6.14939 11.6869 6.21454 11.6483 6.25829 11.59L7.00079 10.6H8.92577L9.66827 11.59C9.71203 11.6483 9.77717 11.6869 9.84938 11.6972C9.92158 11.7076 9.99492 11.6888 10.0533 11.645C10.1116 11.6013 10.1502 11.5361 10.1605 11.4639C10.1708 11.3917 10.1521 11.3184 10.1083 11.26L9.61329 10.6H10.0258C10.3174 10.5997 10.597 10.4837 10.8032 10.2774C11.0094 10.0712 11.1254 9.79164 11.1258 9.5V5.1C11.1254 4.80836 11.0094 4.52877 10.8032 4.32255C10.597 4.11633 10.3174 4.00033 10.0258 4V4ZM6.45078 9.5C6.3692 9.5 6.28944 9.47581 6.22161 9.43048C6.15377 9.38516 6.1009 9.32073 6.06968 9.24536C6.03846 9.16998 6.03029 9.08704 6.04621 9.00703C6.06212 8.92701 6.10141 8.85351 6.1591 8.79582C6.21679 8.73813 6.29029 8.69884 6.37031 8.68293C6.45032 8.66701 6.53326 8.67518 6.60864 8.7064C6.68401 8.73762 6.74844 8.79049 6.79376 8.85833C6.83909 8.92616 6.86328 9.00592 6.86328 9.0875C6.86328 9.1969 6.81982 9.30182 6.74246 9.37918C6.6651 9.45654 6.56018 9.5 6.45078 9.5ZM7.68828 7.3H5.35078V5.925H7.68828V7.3ZM9.47578 9.5C9.3942 9.5 9.31444 9.47581 9.24661 9.43048C9.17877 9.38516 9.1259 9.32073 9.09468 9.24536C9.06346 9.16998 9.05529 9.08704 9.07121 9.00703C9.08712 8.92701 9.12641 8.85351 9.1841 8.79582C9.24179 8.73813 9.31529 8.69884 9.39531 8.68293C9.47532 8.66701 9.55826 8.67518 9.63364 8.7064C9.70901 8.73762 9.77344 8.79049 9.81876 8.85833C9.86409 8.92616 9.88828 9.00592 9.88828 9.0875C9.88828 9.1969 9.84482 9.30182 9.76746 9.37918C9.6901 9.45654 9.58518 9.5 9.47578 9.5ZM10.5758 7.3H8.23828V5.925H10.5758V7.3Z" fill="black"/>
</svg>
