<?xml version="1.0" encoding="utf-8"?>
<!-- Generator: Adobe Illustrator 26.0.0, SVG Export Plug-In . SVG Version: 6.00 Build 0)  -->
<svg version="1.1" id="Layer_1" xmlns="http://www.w3.org/2000/svg" xmlns:xlink="http://www.w3.org/1999/xlink" x="0px" y="0px"
	 viewBox="0 0 1200 1200" style="enable-background:new 0 0 1200 1200;" xml:space="preserve">
<style type="text/css">
	.st0{fill:#B5B5C3;}
	.st1{fill:#FFFFFF;}
</style>
<g>
	<g>
		<path class="st1" d="M1185.98,896.77c0,23.47-12.31,41.73-22.89,57.81c-24.52,37.25-61.34,49.26-105.48,49.22
			c-91.93-0.08-183.85-0.02-275.78-0.02c-212.84,0-425.68,0.03-638.53-0.02c-59.36-0.02-105.82-31.49-122.65-84.39
			c-4.31-13.54-6.25-28.39-6.28-42.65c-0.41-175.84-0.33-351.68-0.24-527.53c0.04-73.99,52.61-126.69,126.89-126.98
			c71.71-0.27,143.42-0.06,215.13-0.06c233.44,0,466.88-0.03,700.32,0.02c59.98,0.01,106.33,31.98,123.52,85.07
			c2.33,7.2,5.99,19.19,5.99,26.42C1185.98,522.87,1185.98,707.56,1185.98,896.77z M1135.85,514.31c0-32.25,0-63.7,0-95.47
			 M1133.87,324.51c-8.65-33.85-37.15-53.13-75.91-53.14c-176.57-0.05-353.15-0.02-529.72-0.02c-129.67,0-259.33,0.58-388.99-0.33
			c-41.78-0.29-74.46,35.48-74.75,96.93c0,0-1.82,408.27-1.71,507.81c0.05,48.2,30.44,78.76,78.5,78.77
			c305.87,0.07,611.73,0.07,917.6,0c48.06-0.01,78.37-30.57,78.42-78.85C1137.41,776.13,1137.37,338.19,1133.87,324.51z"/>
	</g>
	<g>
		<path class="st1" d="M355.49,470.67c-3.23,33.47-28.95,61-62.6,64.38c-22.24,2.23-45.05,2.45-67.29,0.32
			c-38.02-3.64-63.82-33.54-64.66-71.92c-0.36-16.39-0.35-32.79-0.01-49.18c0.82-38.88,26.94-68.81,65.59-72.28
			c22.26-2,45.07-1.76,67.29,0.63c35.11,3.79,61.01,34.27,62.03,69.73C356.11,421.51,356.47,460.48,355.49,470.67z M258.02,487.36
			c8.01,0,16.03,0.25,24.03-0.05c14.51-0.55,24.11-8.78,24.84-23.11c0.86-17.11,0.88-34.34-0.09-51.44
			c-0.79-13.82-10.27-22.08-24.21-22.43c-16.39-0.41-32.81-0.45-49.19,0.05c-14.1,0.43-23.39,9.91-23.78,24.11
			c-0.44,16.01-0.4,32.04-0.03,48.05c0.35,14.81,9.68,24.1,24.41,24.74C241.99,487.63,250.01,487.34,258.02,487.36z"/>
	</g>
	<g>
		<path class="st1" d="M331.01,808.08c47.26,0,94.51-0.07,141.77,0.04c17.07,0.04,27.51,7.87,29.07,21.27
			c1.54,13.26-6,24.11-19.13,26.9c-4.05,0.86-8.32,0.96-12.48,0.96c-92.61,0.05-185.21,0.06-277.82-0.03
			c-4.9,0-9.98-0.34-14.67-1.63c-10.34-2.84-17.11-12.46-17.06-23.05c0.05-10.65,6.85-20.06,17.32-22.85
			c4.7-1.25,9.77-1.54,14.68-1.55C238.79,808.03,284.9,808.08,331.01,808.08z"/>
	</g>
	<g>
		<path class="st1" d="M331.6,710.81c45.73,0,91.45-0.01,137.18,0.01c3.81,0,7.64-0.09,11.42,0.28
			c12.87,1.25,21.66,10.81,21.84,23.49c0.17,12.54-8.42,22.77-20.96,24.53c-3.75,0.53-7.61,0.31-11.41,0.31
			c-92.22,0.01-184.43,0.01-276.65,0.01c-3.05,0-6.11,0.14-9.14-0.12c-13.62-1.17-23.57-11.96-23.19-24.98
			c0.37-12.74,10.01-22.66,23.46-23.3c10.65-0.5,21.33-0.22,32-0.23C254.63,710.8,293.12,710.8,331.6,710.81z"/>
	</g>
	<g>
		<path class="st1" d="M936.59,365.64h35.66v53.19h-35.66V365.64z"/>
	</g>
	<g>
		<path class="st1" d="M1009.69,365.64h35.66v53.19h-35.66V365.64z"/>
	</g>
	<g>
		<path class="st1" d="M778.19,365.64h35.66v53.19h-35.66V365.64z"/>
	</g>
	<g>
		<path class="st1" d="M851.3,365.64h35.66v53.19H851.3V365.64z"/>
	</g>
	<g>
		<path class="st1" d="M643.57,814.84h53.19v35.66h-53.19V814.84z"/>
	</g>
	<g>
		<path class="st1" d="M730.05,814.84h53.19v35.66h-53.19V814.84z"/>
	</g>
	<g>
		<path class="st1" d="M817.72,814.84h53.19v35.66h-53.19V814.84z"/>
	</g>
	<g>
		<path class="st1" d="M904.19,814.84h53.19v35.66h-53.19V814.84z"/>
	</g>
	<g>
		<path class="st1" d="M992.16,814.84h53.19v35.66h-53.19V814.84z"/>
	</g>
</g>
</svg>
