<?xml version="1.0" encoding="utf-8"?>
<!-- Generator: Adobe Illustrator 25.0.0, SVG Export Plug-In . SVG Version: 6.00 Build 0)  -->
<svg version="1.1" id="Layer_1" xmlns="http://www.w3.org/2000/svg" xmlns:xlink="http://www.w3.org/1999/xlink" x="0px" y="0px"
	 viewBox="0 0 1200 1200" style="enable-background:new 0 0 1200 1200;" xml:space="preserve">
<style type="text/css">
	.st0{fill:#FFFFFF;}
</style>
<g>
	<path class="st0" d="M1070.7,318.33c-314.55,0-627.99,0-941.44,0c0,188.44,0,375.87,0,563.79c314.06,0,627.53,0,941.44,0
		C1070.7,693.95,1070.7,506.5,1070.7,318.33z M1118,582.78c0.32,105.09,0.22,210.19,0.2,315.28c0,24.86-7.02,31.75-32.18,31.75
		c-324.2,0-648.4-0.07-972.6,0.24c-14.42,0.01-25-3.87-31.76-16.74c0-208.69,0-408.97,0-617.66c0-12.39,0-24.29,20.87-24.29
		l994.73-1.43c18.38,3.96,21.15,16.64,21.08,32.58c-0.31,67.98-0.13,135.96-0.13,203.94c0,4.14,0,8.29,0,14.65L1118,582.78z"/>
	<path class="st0" d="M600.05,364.66c94.92,0,189.83-0.08,284.75,0.07c17.74,0.03,23.11,4.49,29.05,21.29
		c15.43,43.65,45.13,73.1,88.61,88.7c16.76,6.01,21.29,11.26,21.36,29.07c0.23,64.46,0.2,128.92-0.04,193.38
		c-0.06,16.36-4.84,22.43-20.01,27.69c-45.04,15.63-75.25,45.93-90.6,91.1c-5.48,16.13-10.48,19.62-29.97,19.62
		c-189.44,0.04-378.88,0-568.32-0.14c-16.96-0.01-22.77-4.58-28.39-20.64c-15.59-44.56-45.53-74.74-90.32-89.81
		c-13.1-4.41-20.02-12.59-20-26.69c0.08-65.23-0.21-130.46,0.15-195.69c0.1-17.17,4.79-22.02,21.25-27.91
		c43.51-15.56,73.18-45.01,88.58-88.7c5.92-16.79,11.36-21.23,29.14-21.26C410.21,364.57,505.13,364.66,600.05,364.66z
		 M600.97,788.75c87.1,0,174.21-0.08,261.31,0.14c7.43,0.02,11.49-1.57,14.96-9.09c19.25-41.61,49.92-72.29,91.7-91.35
		c6.4-2.92,8.32-6.37,8.29-13.1c-0.26-50.01-0.28-100.01,0.01-150.02c0.04-7.14-1.78-10.78-8.71-13.97
		c-41.67-19.19-72.28-49.9-91.56-91.54c-2.88-6.22-6.04-8.44-12.91-8.44c-176.16,0.19-352.32,0.18-528.49,0.02
		c-6.28-0.01-9.59,1.65-12.32,7.66c-19.16,42.23-50.14,73.02-92.1,92.55c-6.15,2.86-8.54,6.1-8.49,13.02
		c0.3,50.01,0.31,100.01,0,150.02c-0.05,7.34,2.36,10.86,9.01,13.96c40.78,19,71.33,48.83,90.28,89.68
		c4.08,8.8,8.94,10.66,17.69,10.63C426.76,788.64,513.87,788.75,600.97,788.75z"/>
	<path class="st0" d="M741.19,600.28c-0.21,78.12-64.17,141.85-141.75,141.25c-78.08-0.61-140.88-64.26-140.57-142.49
		c0.3-77.89,64.25-141.02,142.36-140.52C678.6,459.02,741.39,522.62,741.19,600.28z M693.99,600.34
		c0.18-51.94-41.27-94.14-93.01-94.7c-52.02-0.56-94.92,41.83-95.07,93.95c-0.15,52.31,42.2,94.81,94.31,94.63
		C652.11,694.05,693.82,652.29,693.99,600.34z"/>
	<circle class="st0" cx="339.9" cy="600.12" r="27.12"/>
	<circle class="st0" cx="849.09" cy="600.12" r="27.12"/>
</g>
</svg>
