<?xml version="1.0" encoding="utf-8"?>
<!-- Generator: Adobe Illustrator 25.0.0, SVG Export Plug-In . SVG Version: 6.00 Build 0)  -->
<svg version="1.1" id="Layer_1" xmlns="http://www.w3.org/2000/svg" xmlns:xlink="http://www.w3.org/1999/xlink" x="0px" y="0px"
	 viewBox="0 0 1200 1200" style="enable-background:new 0 0 1200 1200;" xml:space="preserve">
<style type="text/css">
	.st0{fill:#FFFFFF;}
</style>
<g>
	<path class="st0" d="M1094.26,778.25c-6.22,15.34-10.2,32.16-19.13,45.72c-20.68,31.42-51.93,44.59-89.16,44.56
		c-77.54-0.07-155.08-0.02-232.62-0.02c-179.53,0-359.07,0.03-538.6-0.02c-50.07-0.01-89.26-26.57-103.45-71.19
		c-3.63-11.42-5.27-23.95-5.3-35.98c-0.35-148.32-0.28-296.65-0.2-444.97c0.03-62.41,44.38-106.87,107.03-107.11
		c60.49-0.23,120.98-0.05,181.46-0.05c196.91,0,393.82-0.02,590.72,0.01c50.59,0.01,89.69,26.98,104.19,71.76
		c1.97,6.07,3.38,12.32,5.05,18.48C1094.26,459.06,1094.26,618.65,1094.26,778.25z M146.8,498.19c0,4.16,0,7.3,0,10.45
		c0,83.96-0.06,167.93,0.03,251.89c0.04,40.66,25.67,66.44,66.21,66.44c258,0.06,516,0.06,774,0c40.54-0.01,66.11-25.78,66.15-66.51
		c0.09-83.96,0.03-167.93,0.01-251.89c0-3.37-0.3-6.74-0.48-10.38C750.5,498.19,449.46,498.19,146.8,498.19z M1051.97,375.11
		c-301.7,0-602.82,0-903.73,0c0,27.37,0,53.9,0,80.53c301.64,0,602.53,0,903.73,0C1051.97,428.44,1051.97,401.91,1051.97,375.11z
		 M1054.2,332.19c-1.25-12.73-0.95-25.1-3.9-36.64c-7.3-28.55-31.34-44.81-64.03-44.82c-148.94-0.04-297.88-0.02-446.82-0.02
		c-109.37,0-218.75,0.49-328.12-0.28c-35.25-0.25-73.13,28.37-63.05,81.76C449.53,332.19,750.81,332.19,1054.2,332.19z"/>
	<path class="st0" d="M970.31,689.31c-2.73,28.23-24.42,51.46-52.81,54.3c-18.76,1.88-38,2.07-56.76,0.27
		c-32.07-3.07-53.83-28.29-54.54-60.67c-0.3-13.82-0.3-27.66-0.01-41.48c0.69-32.79,22.72-58.04,55.33-60.97
		c18.78-1.68,38.02-1.49,56.76,0.53c29.62,3.2,51.46,28.91,52.32,58.82C970.84,647.84,971.14,680.71,970.31,689.31z M888.09,703.39
		c6.76,0,13.52,0.21,20.27-0.05c12.24-0.46,20.34-7.4,20.95-19.49c0.73-14.43,0.75-28.97-0.08-43.39
		c-0.66-11.66-8.67-18.62-20.42-18.92c-13.82-0.34-27.67-0.38-41.49,0.04c-11.89,0.36-19.73,8.36-20.06,20.33
		c-0.37,13.5-0.34,27.03-0.02,40.53c0.29,12.5,8.16,20.33,20.59,20.87C874.57,703.62,881.34,703.38,888.09,703.39z"/>
	<path class="st0" d="M373.09,703.44c39.86,0,79.72-0.06,119.58,0.03c14.4,0.03,23.2,6.64,24.52,17.94
		c1.3,11.19-5.07,20.34-16.14,22.69c-3.41,0.73-7.01,0.81-10.53,0.81c-78.11,0.04-156.23,0.05-234.34-0.02
		c-4.13,0-8.42-0.29-12.37-1.37c-8.72-2.4-14.44-10.51-14.39-19.44c0.05-8.99,5.78-16.92,14.61-19.27c3.97-1.05,8.24-1.3,12.38-1.31
		C295.29,703.4,334.19,703.44,373.09,703.44z"/>
	<path class="st0" d="M373.58,621.39c38.57,0,77.14,0,115.71,0.01c3.21,0,6.44-0.07,9.63,0.24c10.86,1.06,18.27,9.12,18.42,19.82
		c0.15,10.58-7.1,19.2-17.68,20.69c-3.16,0.44-6.42,0.26-9.63,0.26c-77.78,0.01-155.57,0.01-233.35,0.01c-2.57,0-5.16,0.12-7.71-0.1
		c-11.49-0.99-19.88-10.08-19.56-21.07c0.31-10.75,8.44-19.11,19.79-19.65c8.98-0.43,17.99-0.19,26.99-0.19
		C308.66,621.38,341.12,621.39,373.58,621.39z"/>
</g>
</svg>
