<?xml version="1.0" encoding="utf-8"?>
<!-- Generator: Adobe Illustrator 26.0.0, SVG Export Plug-In . SVG Version: 6.00 Build 0)  -->
<svg version="1.1" id="Layer_1" xmlns="http://www.w3.org/2000/svg" xmlns:xlink="http://www.w3.org/1999/xlink" x="0px" y="0px"
	 viewBox="0 0 1200 1200" style="enable-background:new 0 0 1200 1200;" xml:space="preserve">
<style type="text/css">
	.st0{fill:#B5B5C3;}
	.st1{fill:#FFFFFF;}
</style>
<g id="Gradient">
	<g>
		<path class="st1" d="M660.44,1068.44H207.11c-41.71-0.05-75.51-33.85-75.56-75.56V207.11c0.05-41.71,33.85-75.51,75.56-75.56
			h453.33c41.71,0.05,75.51,33.85,75.56,75.56v105.78c0,8.35-6.77,15.11-15.11,15.11c-8.35,0-15.11-6.77-15.11-15.11V207.11
			c0-25.04-20.3-45.33-45.33-45.33H207.11c-25.04,0-45.33,20.3-45.33,45.33v785.78c0,25.04,20.3,45.33,45.33,45.33l0,0h453.33
			c25.04,0,45.33-20.3,45.33-45.33l0,0V826.67c0-8.35,6.77-15.11,15.11-15.11c8.35,0,15.11,6.77,15.11,15.11v166.22
			C735.95,1034.6,702.15,1068.39,660.44,1068.44z"/>
		<path class="st1" d="M660.45,1073.44H207.11c-44.37-0.05-80.5-36.19-80.56-80.55V207.11c0.05-44.37,36.19-80.5,80.55-80.56h453.34
			c44.37,0.05,80.5,36.19,80.56,80.55v105.78c0,11.09-9.02,20.11-20.11,20.11s-20.11-9.02-20.11-20.11V207.11
			c0-22.24-18.09-40.33-40.33-40.33H207.11c-22.24,0-40.33,18.09-40.33,40.33v785.78c0,22.24,18.09,40.33,40.33,40.33h453.33
			c22.24,0,40.33-18.09,40.33-40.33V826.67c0-11.09,9.02-20.11,20.11-20.11S741,815.58,741,826.67v166.22
			C740.95,1037.26,704.81,1073.39,660.45,1073.44z M207.11,136.56c-38.85,0.05-70.51,31.7-70.56,70.56v785.77
			c0.05,38.86,31.7,70.51,70.56,70.56h453.32c38.86-0.05,70.52-31.7,70.56-70.56V826.67c0-5.58-4.54-10.11-10.11-10.11
			s-10.11,4.54-10.11,10.11v166.22c0,27.75-22.58,50.33-50.33,50.33H207.11c-27.75,0-50.33-22.58-50.33-50.33V207.11
			c0-27.75,22.58-50.33,50.33-50.33h453.33c27.75,0,50.33,22.58,50.33,50.33v105.78c0,5.58,4.54,10.11,10.11,10.11
			S731,318.46,731,312.89V207.11c-0.05-38.86-31.7-70.51-70.56-70.56H207.11z"/>
	</g>
	<g>
		<path class="st1" d="M660.44,917.33H207.11c-8.35,0-15.11-6.77-15.11-15.11V237.33c0-8.35,6.77-15.11,15.11-15.11h453.33
			c8.35,0,15.11,6.77,15.11,15.11v75.56c0,8.35-6.77,15.11-15.11,15.11c-8.35,0-15.11-6.77-15.11-15.11v-60.44H222.22v634.67h423.11
			v-60.44c0-8.35,6.77-15.11,15.11-15.11c8.35,0,15.11,6.77,15.11,15.11v75.56C675.56,910.57,668.79,917.33,660.44,917.33z"/>
		<path class="st1" d="M660.44,922.33H207.11c-11.09,0-20.11-9.02-20.11-20.11V237.33c0-11.09,9.02-20.11,20.11-20.11h453.33
			c11.09,0,20.11,9.02,20.11,20.11v75.56c0,11.09-9.02,20.11-20.11,20.11s-20.11-9.02-20.11-20.11v-55.44H227.22v624.67h413.11
			v-55.44c0-11.09,9.02-20.11,20.11-20.11s20.11,9.02,20.11,20.11v75.56C680.56,913.31,671.53,922.33,660.44,922.33z M207.11,227.22
			c-5.58,0-10.11,4.54-10.11,10.11v664.89c0,5.58,4.54,10.11,10.11,10.11h453.33c5.58,0,10.11-4.54,10.11-10.11v-75.56
			c0-5.58-4.54-10.11-10.11-10.11s-10.11,4.54-10.11,10.11v65.44H217.22V247.45h433.11v65.44c0,5.58,4.54,10.11,10.11,10.11
			s10.11-4.54,10.11-10.11v-75.56c0-5.58-4.54-10.11-10.11-10.11H207.11z"/>
	</g>
	<g>
		<path class="st1" d="M433.78,1023.11c-25.04,0-45.33-20.3-45.33-45.33s20.3-45.33,45.33-45.33c25.04,0,45.33,20.3,45.33,45.33
			S458.82,1023.11,433.78,1023.11z M433.78,962.67c-8.35,0-15.11,6.77-15.11,15.11s6.77,15.11,15.11,15.11
			c8.35,0,15.11-6.77,15.11-15.11S442.12,962.67,433.78,962.67z"/>
		<path class="st1" d="M433.78,1028.11c-27.75,0-50.33-22.58-50.33-50.33s22.58-50.33,50.33-50.33s50.33,22.58,50.33,50.33
			S461.53,1028.11,433.78,1028.11z M433.78,937.44c-22.24,0-40.33,18.09-40.33,40.33c0,22.24,18.09,40.33,40.33,40.33
			s40.33-18.09,40.33-40.33C474.11,955.54,456.02,937.44,433.78,937.44z M433.78,997.89c-11.09,0-20.11-9.02-20.11-20.11
			c0-11.09,9.02-20.11,20.11-20.11s20.11,9.02,20.11,20.11C453.89,988.87,444.87,997.89,433.78,997.89z M433.78,967.67
			c-5.58,0-10.11,4.54-10.11,10.11s4.54,10.11,10.11,10.11s10.11-4.54,10.11-10.11S439.35,967.67,433.78,967.67z"/>
	</g>
	<g>
		<path class="st1" d="M494.22,207.11H373.33c-8.35,0-15.11-6.77-15.11-15.11c0-8.35,6.77-15.11,15.11-15.11h120.89
			c8.35,0,15.11,6.77,15.11,15.11C509.33,200.35,502.57,207.11,494.22,207.11z"/>
		<path class="st1" d="M494.22,212.11H373.33c-11.09,0-20.11-9.02-20.11-20.11s9.02-20.11,20.11-20.11h120.89
			c11.09,0,20.11,9.02,20.11,20.11S505.31,212.11,494.22,212.11z M373.33,181.89c-5.58,0-10.11,4.54-10.11,10.11
			s4.54,10.11,10.11,10.11h120.89c5.58,0,10.11-4.54,10.11-10.11s-4.54-10.11-10.11-10.11H373.33z"/>
	</g>
	<g>
		<path class="st1" d="M1008,388.44H448.89c-8.35,0-15.11-6.77-15.11-15.11v-60.44c0-8.35,6.77-15.11,15.11-15.11H1008
			c8.35,0,15.11,6.77,15.11,15.11v60.44C1023.11,381.68,1016.34,388.44,1008,388.44z M464,358.22h528.89V328H464V358.22z"/>
		<path class="st1" d="M1008,393.45H448.89c-11.09,0-20.11-9.02-20.11-20.11v-60.44c0-11.09,9.02-20.11,20.11-20.11H1008
			c11.09,0,20.11,9.02,20.11,20.11v60.44C1028.11,384.42,1019.09,393.45,1008,393.45z M448.89,302.78
			c-5.58,0-10.11,4.54-10.11,10.11v60.44c0,5.58,4.54,10.11,10.11,10.11H1008c5.58,0,10.11-4.54,10.11-10.11v-60.44
			c0-5.58-4.54-10.11-10.11-10.11H448.89z M997.89,363.22H459V323h538.89V363.22z M469,353.22h518.89V333H469V353.22z"/>
	</g>
	<g>
		<path class="st1" d="M992.89,841.78H479.11c-25.04,0-45.33-20.3-45.33-45.33V373.33c0-8.35,6.77-15.11,15.11-15.11h604.44
			c8.35,0,15.11,6.77,15.11,15.11v392.89C1068.39,807.93,1034.6,841.73,992.89,841.78z M464,388.44v408
			c0,8.35,6.77,15.11,15.11,15.11h513.78c25.04,0,45.33-20.3,45.33-45.33V388.44H464z"/>
		<path class="st1" d="M992.89,846.78H479.11c-27.75,0-50.33-22.58-50.33-50.33V373.33c0-11.09,9.02-20.11,20.11-20.11h604.44
			c11.09,0,20.11,9.02,20.11,20.11v392.89C1073.39,810.59,1037.26,846.72,992.89,846.78z M448.89,363.22
			c-5.58,0-10.11,4.54-10.11,10.11v423.11c0,22.24,18.09,40.33,40.33,40.33h513.77c38.86-0.05,70.51-31.7,70.56-70.56V373.33
			c0-5.58-4.54-10.11-10.11-10.11H448.89z M992.89,816.55H479.11c-11.09,0-20.11-9.02-20.11-20.11v-413h584.22v382.78
			C1043.22,793.98,1020.64,816.55,992.89,816.55z M469,393.45v403c0,5.58,4.54,10.11,10.11,10.11h513.78
			c22.24,0,40.33-18.09,40.33-40.33V393.45H469z"/>
	</g>
	<g>
		<path class="st1" d="M1053.33,690.67H902.22c-25.04,0-45.33-20.3-45.33-45.33v-90.67c0-25.04,20.3-45.33,45.33-45.33h151.11
			c8.35,0,15.11,6.77,15.11,15.11v151.11C1068.44,683.9,1061.68,690.67,1053.33,690.67z M902.22,539.56
			c-8.35,0-15.11,6.77-15.11,15.11v90.67c0,8.35,6.77,15.11,15.11,15.11h136V539.56H902.22z"/>
		<path class="st1" d="M1053.33,695.67H902.22c-27.75,0-50.33-22.58-50.33-50.33v-90.67c0-27.75,22.58-50.33,50.33-50.33h151.11
			c11.09,0,20.11,9.02,20.11,20.11v151.11C1073.44,686.64,1064.42,695.67,1053.33,695.67z M902.22,514.33
			c-22.24,0-40.33,18.09-40.33,40.33v90.67c0,22.24,18.09,40.33,40.33,40.33h151.11c5.58,0,10.11-4.54,10.11-10.11V524.44
			c0-5.58-4.54-10.11-10.11-10.11H902.22z M1043.22,665.44h-141c-11.09,0-20.11-9.02-20.11-20.11v-90.67
			c0-11.09,9.02-20.11,20.11-20.11h141V665.44z M902.22,544.56c-5.58,0-10.11,4.54-10.11,10.11v90.67c0,5.58,4.54,10.11,10.11,10.11
			h131V544.56H902.22z"/>
	</g>
</g>
</svg>
