<?xml version="1.0" encoding="utf-8"?>
<!-- Generator: Adobe Illustrator 25.0.0, SVG Export Plug-In . SVG Version: 6.00 Build 0)  -->
<svg version="1.1" id="Layer_1" xmlns="http://www.w3.org/2000/svg" xmlns:xlink="http://www.w3.org/1999/xlink" x="0px" y="0px"
	 viewBox="0 0 1200 1200" style="enable-background:new 0 0 1200 1200;" xml:space="preserve">
<style type="text/css">
	.st0{fill:#FFFFFF;}
</style>
<g>
	<path class="st0" d="M499.79,660.26H310.37c-22.13,0-40.07,17.94-40.07,40.07v189.42c0,22.13,17.94,40.07,40.07,40.07h189.42
		c22.13,0,40.07-17.94,40.07-40.07V700.32C539.85,678.19,521.92,660.26,499.79,660.26z M492.19,860.33
		c0,12.04-9.76,21.81-21.81,21.81h-130.6c-12.04,0-21.81-9.76-21.81-21.81v-130.6c0-12.04,9.76-21.81,21.81-21.81h130.6
		c12.04,0,21.81,9.76,21.81,21.81V860.33z"/>
	<path class="st0" d="M889.63,660.26H700.21c-22.13,0-40.07,17.94-40.07,40.07v189.42c0,22.13,17.94,40.07,40.07,40.07h189.42
		c22.13,0,40.07-17.94,40.07-40.07V700.32C929.7,678.19,911.76,660.26,889.63,660.26z M882.03,860.33
		c0,12.04-9.76,21.81-21.81,21.81h-130.6c-12.04,0-21.81-9.76-21.81-21.81v-130.6c0-12.04,9.76-21.81,21.81-21.81h130.6
		c12.04,0,21.81,9.76,21.81,21.81V860.33z"/>
	<path class="st0" d="M499.79,270.41H310.37c-22.13,0-40.07,17.94-40.07,40.07V499.9c0,22.13,17.94,40.07,40.07,40.07h189.42
		c22.13,0,40.07-17.94,40.07-40.07V310.48C539.85,288.35,521.92,270.41,499.79,270.41z M492.19,470.49
		c0,12.04-9.76,21.81-21.81,21.81h-130.6c-12.04,0-21.81-9.76-21.81-21.81v-130.6c0-12.04,9.76-21.81,21.81-21.81h130.6
		c12.04,0,21.81,9.76,21.81,21.81V470.49z"/>
	<path class="st0" d="M889.63,270.41H700.21c-22.13,0-40.07,17.94-40.07,40.07V499.9c0,22.13,17.94,40.07,40.07,40.07h189.42
		c22.13,0,40.07-17.94,40.07-40.07V310.48C929.7,288.35,911.76,270.41,889.63,270.41z M882.03,470.49
		c0,12.04-9.76,21.81-21.81,21.81h-130.6c-12.04,0-21.81-9.76-21.81-21.81v-130.6c0-12.04,9.76-21.81,21.81-21.81h130.6
		c12.04,0,21.81,9.76,21.81,21.81V470.49z"/>
</g>
</svg>
